<mxfile host="Electron" modified="2023-12-19T16:00:03.047Z" agent="Mozilla/5.0 (Windows NT 10.0; Win64; x64) AppleWebKit/537.36 (KHTML, like Gecko) draw.io/22.0.2 Chrome/114.0.5735.289 Electron/25.8.4 Safari/537.36" etag="-U3SLzmTKnP3HEwpiu-h" version="22.0.2" type="device" pages="14">
  <diagram id="aJ0LiHC349hsBEPgWb3-" name="UVOD">
    <mxGraphModel dx="1418" dy="820" grid="1" gridSize="10" guides="1" tooltips="1" connect="1" arrows="1" fold="1" page="1" pageScale="1" pageWidth="1169" pageHeight="827" math="0" shadow="0">
      <root>
        <mxCell id="0" />
        <mxCell id="1" parent="0" />
        <mxCell id="X0ZOWILDasFKd_X9gVLP-2" value="https://coolsymbol.com/" style="text;html=1;strokeColor=none;fillColor=none;align=center;verticalAlign=top;whiteSpace=wrap;rounded=0;fontSize=30;" vertex="1" parent="1">
          <mxGeometry x="40" y="40" width="360" height="40" as="geometry" />
        </mxCell>
        <mxCell id="X0ZOWILDasFKd_X9gVLP-3" value="x²³⁴⁵⁶&lt;br&gt;x⁶x⁵x⁴x³x²x" style="text;html=1;strokeColor=none;fillColor=none;align=center;verticalAlign=top;whiteSpace=wrap;rounded=0;fontSize=30;" vertex="1" parent="1">
          <mxGeometry x="40" y="120" width="320" height="120" as="geometry" />
        </mxCell>
        <mxCell id="GvVNb3sZT6f2sz1_xPFe-1" value="Poznámky Matyho" style="text;html=1;strokeColor=none;fillColor=none;align=center;verticalAlign=top;whiteSpace=wrap;rounded=0;fontSize=30;" vertex="1" parent="1">
          <mxGeometry x="40" y="280" width="480" height="80" as="geometry" />
        </mxCell>
        <mxCell id="GvVNb3sZT6f2sz1_xPFe-2" value="Poznámky Tomáše" style="text;html=1;strokeColor=none;fillColor=none;align=center;verticalAlign=top;whiteSpace=wrap;rounded=0;fontSize=30;" vertex="1" parent="1">
          <mxGeometry x="600" y="280" width="480" height="80" as="geometry" />
        </mxCell>
        <mxCell id="GvVNb3sZT6f2sz1_xPFe-3" value="Poznámky Matyho" style="text;html=1;strokeColor=none;fillColor=none;align=center;verticalAlign=top;whiteSpace=wrap;rounded=0;fontSize=30;fontColor=#009900;" vertex="1" parent="1">
          <mxGeometry x="40" y="360" width="480" height="440" as="geometry" />
        </mxCell>
        <mxCell id="GvVNb3sZT6f2sz1_xPFe-4" value="Poznámky Tomáše" style="text;html=1;strokeColor=none;fillColor=none;align=center;verticalAlign=top;whiteSpace=wrap;rounded=0;fontSize=30;fontColor=#0000FF;" vertex="1" parent="1">
          <mxGeometry x="600" y="360" width="480" height="440" as="geometry" />
        </mxCell>
        <mxCell id="QNJgiyvoJfgm3coiV_FS-1" value="x⁶x⁵x⁴x³x²x&lt;br&gt;&lt;hr&gt;x⁶x⁵x⁴x³x²x" style="text;html=1;strokeColor=none;fillColor=none;align=center;verticalAlign=top;whiteSpace=wrap;rounded=0;fontSize=30;" vertex="1" parent="1">
          <mxGeometry x="400" y="120" width="200" height="120" as="geometry" />
        </mxCell>
      </root>
    </mxGraphModel>
  </diagram>
  <diagram name="Stránka-1" id="GApEDVqeEUWgCZD1FsU9">
    <mxGraphModel dx="1418" dy="820" grid="1" gridSize="10" guides="1" tooltips="1" connect="1" arrows="1" fold="1" page="1" pageScale="1" pageWidth="1169" pageHeight="827" math="0" shadow="0">
      <root>
        <mxCell id="0" />
        <mxCell id="1" parent="0" />
        <mxCell id="cWqFb170pxVzDWCxJsD8-1" value="1&lt;hr&gt;x+1" style="text;html=1;strokeColor=none;fillColor=none;align=center;verticalAlign=top;whiteSpace=wrap;rounded=0;fontSize=30;" vertex="1" parent="1">
          <mxGeometry x="40" y="40" width="120" height="120" as="geometry" />
        </mxCell>
      </root>
    </mxGraphModel>
  </diagram>
  <diagram id="WeHr8eUcAFTrX8Ivg7Zm" name="Stránka-2">
    <mxGraphModel dx="1418" dy="820" grid="1" gridSize="10" guides="1" tooltips="1" connect="1" arrows="1" fold="1" page="1" pageScale="1" pageWidth="1169" pageHeight="827" math="0" shadow="0">
      <root>
        <mxCell id="0" />
        <mxCell id="1" parent="0" />
        <mxCell id="6eBhvMKbvU4kck_71Owk-1" value="x²+x&lt;hr&gt;x+1" style="text;html=1;strokeColor=none;fillColor=none;align=center;verticalAlign=top;whiteSpace=wrap;rounded=0;fontSize=30;" vertex="1" parent="1">
          <mxGeometry x="40" y="40" width="80" height="120" as="geometry" />
        </mxCell>
      </root>
    </mxGraphModel>
  </diagram>
  <diagram id="NAhYuiX6Er0uMob55V_l" name="Stránka-3">
    <mxGraphModel dx="1418" dy="820" grid="1" gridSize="10" guides="1" tooltips="1" connect="1" arrows="1" fold="1" page="1" pageScale="1" pageWidth="1169" pageHeight="827" math="0" shadow="0">
      <root>
        <mxCell id="0" />
        <mxCell id="1" parent="0" />
        <mxCell id="lhL0vCZ9NfD3hCwdcA1I-1" value="x³+2x²-3x+1&lt;hr&gt;x+1" style="text;html=1;strokeColor=none;fillColor=none;align=center;verticalAlign=top;whiteSpace=wrap;rounded=0;fontSize=30;" vertex="1" parent="1">
          <mxGeometry x="40" y="40" width="200" height="120" as="geometry" />
        </mxCell>
      </root>
    </mxGraphModel>
  </diagram>
  <diagram id="Vl2_B_AMoyKfWbjINxFV" name="Stránka-4">
    <mxGraphModel dx="1418" dy="820" grid="1" gridSize="10" guides="1" tooltips="1" connect="1" arrows="1" fold="1" page="1" pageScale="1" pageWidth="1169" pageHeight="827" math="0" shadow="0">
      <root>
        <mxCell id="0" />
        <mxCell id="1" parent="0" />
        <mxCell id="6psOdm5NnLeLULJcHpja-1" value="x³+2x²-3x+1&lt;hr&gt;x³-x²+x+1" style="text;html=1;strokeColor=none;fillColor=none;align=center;verticalAlign=top;whiteSpace=wrap;rounded=0;fontSize=30;" vertex="1" parent="1">
          <mxGeometry x="40" y="40" width="200" height="120" as="geometry" />
        </mxCell>
      </root>
    </mxGraphModel>
  </diagram>
  <diagram id="1IkvO0JbA7Mqdx91Q37h" name="Stránka-5">
    <mxGraphModel dx="1418" dy="820" grid="1" gridSize="10" guides="1" tooltips="1" connect="1" arrows="1" fold="1" page="1" pageScale="1" pageWidth="1169" pageHeight="827" math="0" shadow="0">
      <root>
        <mxCell id="0" />
        <mxCell id="1" parent="0" />
        <mxCell id="7TDktI7pWArTVz6w_-Jo-3" value="x³+2x²-3x+1&lt;hr&gt;x³-x²+1" style="text;html=1;strokeColor=none;fillColor=none;align=center;verticalAlign=top;whiteSpace=wrap;rounded=0;fontSize=30;" vertex="1" parent="1">
          <mxGeometry x="40" y="40" width="200" height="120" as="geometry" />
        </mxCell>
      </root>
    </mxGraphModel>
  </diagram>
  <diagram id="YofvY5F62l1JOtDFT4Fo" name="Stránka-6">
    <mxGraphModel dx="1418" dy="820" grid="1" gridSize="10" guides="1" tooltips="1" connect="1" arrows="1" fold="1" page="1" pageScale="1" pageWidth="1169" pageHeight="827" math="0" shadow="0">
      <root>
        <mxCell id="0" />
        <mxCell id="1" parent="0" />
        <mxCell id="7pA3yUILNUFCqH8hwt9u-1" value="x³+x²-1&lt;hr&gt;x³+2x²-3x+1" style="text;html=1;strokeColor=none;fillColor=none;align=center;verticalAlign=top;whiteSpace=wrap;rounded=0;fontSize=30;" vertex="1" parent="1">
          <mxGeometry x="40" y="40" width="200" height="120" as="geometry" />
        </mxCell>
      </root>
    </mxGraphModel>
  </diagram>
  <diagram id="Oznje0127mrmlv7ZpNLf" name="Stránka-7">
    <mxGraphModel dx="1418" dy="820" grid="1" gridSize="10" guides="1" tooltips="1" connect="1" arrows="1" fold="1" page="1" pageScale="1" pageWidth="1169" pageHeight="827" math="0" shadow="0">
      <root>
        <mxCell id="0" />
        <mxCell id="1" parent="0" />
        <mxCell id="MpEjPCX8XGwn83KczPd8-1" value="x²-1&lt;hr&gt;x³+2x²-3x+1" style="text;html=1;strokeColor=none;fillColor=none;align=center;verticalAlign=top;whiteSpace=wrap;rounded=0;fontSize=30;" vertex="1" parent="1">
          <mxGeometry x="40" y="40" width="200" height="120" as="geometry" />
        </mxCell>
      </root>
    </mxGraphModel>
  </diagram>
  <diagram id="BmjLLxPTmsu_PdIKAfsG" name="Stránka-8">
    <mxGraphModel dx="1418" dy="820" grid="1" gridSize="10" guides="1" tooltips="1" connect="1" arrows="1" fold="1" page="1" pageScale="1" pageWidth="1169" pageHeight="827" math="0" shadow="0">
      <root>
        <mxCell id="0" />
        <mxCell id="1" parent="0" />
        <mxCell id="I4j8rsYoqeRV5Vqno5Gd-1" value="3&lt;br&gt;&lt;hr&gt;x³+3x²+3x+1" style="text;html=1;strokeColor=none;fillColor=none;align=center;verticalAlign=top;whiteSpace=wrap;rounded=0;fontSize=30;" vertex="1" parent="1">
          <mxGeometry x="40" y="40" width="200" height="120" as="geometry" />
        </mxCell>
      </root>
    </mxGraphModel>
  </diagram>
  <diagram id="TQm7Lo0dbE1rk96pXeKW" name="Stránka-9">
    <mxGraphModel dx="1418" dy="820" grid="1" gridSize="10" guides="1" tooltips="1" connect="1" arrows="1" fold="1" page="1" pageScale="1" pageWidth="1169" pageHeight="827" math="0" shadow="0">
      <root>
        <mxCell id="0" />
        <mxCell id="1" parent="0" />
        <mxCell id="2H07CeNLuxmKsCSeX0M8-1" value="5&lt;br&gt;&lt;hr&gt;x²+x-2" style="text;html=1;strokeColor=none;fillColor=none;align=center;verticalAlign=top;whiteSpace=wrap;rounded=0;fontSize=30;" vertex="1" parent="1">
          <mxGeometry x="40" y="40" width="200" height="120" as="geometry" />
        </mxCell>
      </root>
    </mxGraphModel>
  </diagram>
  <diagram id="1fdkkzYeemUrDoEr95PV" name="Stránka-10">
    <mxGraphModel dx="1418" dy="820" grid="1" gridSize="10" guides="1" tooltips="1" connect="1" arrows="1" fold="1" page="1" pageScale="1" pageWidth="1169" pageHeight="827" math="0" shadow="0">
      <root>
        <mxCell id="0" />
        <mxCell id="1" parent="0" />
        <mxCell id="aAnXsru02QxzvQgic_zp-1" value="173&lt;br&gt;&lt;hr&gt;14x³+45x²+7x-82" style="text;html=1;strokeColor=none;fillColor=none;align=center;verticalAlign=top;whiteSpace=wrap;rounded=0;fontSize=30;" vertex="1" parent="1">
          <mxGeometry x="40" y="40" width="240" height="120" as="geometry" />
        </mxCell>
      </root>
    </mxGraphModel>
  </diagram>
  <diagram id="kjxFoiQ1kY3q77M8Dhu-" name="Stránka-11">
    <mxGraphModel dx="1418" dy="820" grid="1" gridSize="10" guides="1" tooltips="1" connect="1" arrows="1" fold="1" page="1" pageScale="1" pageWidth="1169" pageHeight="827" math="0" shadow="0">
      <root>
        <mxCell id="0" />
        <mxCell id="1" parent="0" />
        <mxCell id="wk4Or9Xg1YhyCvU3A1r2-1" value="3&lt;br&gt;&lt;hr&gt;x³-2x²+(5x+1)/(2x-3)" style="text;html=1;strokeColor=none;fillColor=none;align=center;verticalAlign=top;whiteSpace=wrap;rounded=0;fontSize=30;" vertex="1" parent="1">
          <mxGeometry x="40" y="40" width="280" height="120" as="geometry" />
        </mxCell>
      </root>
    </mxGraphModel>
  </diagram>
  <diagram id="rqRS4z8fm1fosYf2Qe7X" name="Stránka-12">
    <mxGraphModel dx="1418" dy="820" grid="1" gridSize="10" guides="1" tooltips="1" connect="1" arrows="1" fold="1" page="1" pageScale="1" pageWidth="1169" pageHeight="827" math="0" shadow="0">
      <root>
        <mxCell id="0" />
        <mxCell id="1" parent="0" />
        <mxCell id="xma2FO7MsExyHxtWhW6P-1" value="1&lt;br&gt;&lt;hr&gt;x⁴-5x²+4" style="text;html=1;strokeColor=none;fillColor=none;align=center;verticalAlign=top;whiteSpace=wrap;rounded=0;fontSize=30;" vertex="1" parent="1">
          <mxGeometry x="40" y="40" width="160" height="120" as="geometry" />
        </mxCell>
      </root>
    </mxGraphModel>
  </diagram>
  <diagram id="QTk0hT0pjNyfLCNFN34p" name="Reseni">
    <mxGraphModel dx="1418" dy="820" grid="1" gridSize="10" guides="1" tooltips="1" connect="1" arrows="1" fold="1" page="1" pageScale="1" pageWidth="1169" pageHeight="827" math="0" shadow="0">
      <root>
        <mxCell id="0" />
        <mxCell id="1" parent="0" />
        <mxCell id="fEqCY_47x1B3paPdXpSq-1" value="" style="shape=image;verticalLabelPosition=bottom;labelBackgroundColor=default;verticalAlign=top;aspect=fixed;imageAspect=0;image=data:image/png,iVBORw0KGgoAAAANSUhEUgAAAvEAAAFACAYAAAA1RiOsAAAAAXNSR0IArs4c6QAAAARnQU1BAACxjwv8YQUAAAAJcEhZcwAADsMAAA7DAcdvqGQAAIqfSURBVHhe7Z0HuNTU1oaXitI7CAiIBZRelSaXbgEEUREEaYKKXUHvFbHc/1qwoyCIgoBSRKp0kK7Sey+KFVRQQXpR4Pz7y86GYTxlSmaSzHzv8+Qkk5lzTib1W2uvcl6KQkhM+Ouvv2TVqlXy999/S6ZMmeTaa6+Viy66yH6XEEIIIYSQyDjfnocNBOqKFSusOUmddevWScOGDeWGG26QBg0aSLt27WT58uVCu4kQQgghhERDxCIeHua6detac5I6lStXlrlz58rs2bOlY8eOMm/ePLnppptk7NixFPKEEEIIISRiIhbxCBGBEMWcpA5CZ+rUqSP16tWTAQMGyPvvvy+nT5+W++67T0aNGiWHDx+2P0kIIYQQQkjoRCziSXhkzpxZWrduLUOHDpXzzz9fHnnkEUvMHzt2zP4EIYQQQgghoUERH0fOO+88ue2222TRokXSpEkTmThxonz00UeyZcsWOXXqlP0pQgghhBBC0ociPs5AyJcrV06efvppyyPfo0cPueaaa5hbQAghhBBCQiYiEY+KNFu3brVfkUgoW7aszJ8/X15++WUrt+Drr7+mN54QQgghhIRERCIeXuPHHnvMWkb9cxI+F1xwgdSsWVOuv/5663W3bt2skp2EEEIIIYRkREQi3lSkeeedd6wGRiRy4JHv37+/VbUG1WtQRx7LbsIeAIQQQggh3iaqmHgIUHYgjQ545Nu2bSvt27eXyZMny4033ijbtm2z33UH9gAghBBCCPE2TGz1ANmyZbO88X369LHi4hEr76Y3nj0ACCGEEEK8DUW8R8iSJYtUqlTJqljTq1cv173xhBBCCCHEu1DEe4gqVarIe++9Zy3v3LnTmhNCCCGEEBJM2CKe5SVjB7zwl1xyiVVL/ptvvnE9wTVRwDm7ZMkSWbx4MZN1CSGEEJIQhC3iWV4ybRDPvnHjRlm6dGnENd9z5cplzRlS4xzr1q2Thg0bWhOTdQkhhBCSCIQt4lleMnUg2seMGWN1X61fv75s2bLFfic8AkNqfvjhB2seTxJxpKVy5cry7rvvWsm6o0aNkkOHDtnvEEIIIYT4k4hj4lMrLwkBmIz1xY2Av/vuu60QGEx//PGH/W54IKSmVKlSVkgNBGe8K8Qk4kgLztNOnTpJu3btrOP06KOPyvHjx+13CSGEEEL8h6OJrclYXzxQwMPT+/TTT1tCHMuRAs9xixYtZNq0aXHfl8Zo6Nu3b0KNtEDI9+vXT5o0aWIdr7Vr19rv+J9kNZ4JIYSQZCYsEZ9RqAWEK7zQ6Dx67Ngxe23iEizgP/74YyuUJlogOB966CHLG//hhx+64jUuU6ZMwjXyQr4BPPI4VhC9mzdvjjh3wUsko/FMCCGEJDthiXiIhPRCLeC5RefRmTNnWl7PRCY1Ad+6dWurA6sToGZ8q1atZMSIEVZiZjw4ceKE9f/wfRI1ablgwYKWcfTUU09Z52siCF825yKEEEKSj7BEfEZJrfDcvv7661KiRAkZOHBgxHHhEJNeBV7xZcuWyQcffBAzAQ+yZs1qxXBDcB49etReG1u+/vpr+eyzz6R58+YJm7Rcvnx5qyPuiy++aI0aYWSJ4pcQQgghfiNkER8YSpNaUquhQIEClrg9cOCAVes8XL799lu57bbbZPv27fYa73D48GF5/PHHpV69etK9e/eYCXhDLP5meuzevdv6Tgg5SbRQGgP2ac2aNeWGG26wche6desmb7zxhvW9CSGEEEL8QsgiPqNQmkAuu+wyK9wEZRbDFUcQ8YhXdqO8YnpAwKOqydixY6Vjx45WyNAXX3wRMwHvBjhW8PwnQ/1/eORnz55tjTggh+O3336z3yGEEEII8T4hi/iMQmkCKVq0qDWHtzqSeG6veUXx3Z944gmZOHGiFaeOyi1oHFSrVq2EEfBg/fr11jxfvnzWPJHBcatTp4706NFD9uzZI5MnT06IJNdEAqN/6LQLYxkTO+4SQgghZwkrJh6kF0pjQFLmSy+9ZMUcr1mzJixR/t1333lGxGM7MALxwAMPyEcffSRt2rSxjJhs2bLZn0gc/vzzTxk5cqQ1ilK6dGl7beJzySWXWPNHHnnESlT2m5DPqGKUnzGddhH6hIkddwnJABi5K1boOSEk4QlbxIcCQjJQ8g4xx/DGr1692n4nfeAJ7tWrl7VsvPlugWTSTz/9VK6//nrLA9+yZUt58803E1LAA4Q+/fjjj9K2bVvJkyePvTbxwagSDDQYbMjliLTTrluEE+bmN9AvYe7cuVbYE4xnHCPkynjFyCfEc8DIVc9ea07OAqNmyRKRxYtp4JCEIiQRH4m3D954VHCBkH/vvfcyrHUODygqhgD8HmKW3QLfF8mdplY7YqaRwJozZ077E4nH/v37rTmOWzKBsBrkNeD4Qhz27t3bOv5+wYS5JVpzLoARP4Q8IZEcxwgjRPieGDUihKQC7gcwcllx61wQ1tuwoZ6GD6eQJwlDhiIegma4OunD9fZB/N5+++1yxx13WGEaGcXGI5l16tSpcsstt1jdSt3CfF/ESMMrDS8gvkOWLFnsTyQmJ0+etOY4bsmGEfJ33nmnzJkzRzZt2mS/4x8SsTlXIPnz57eMaiS+T58+3QrVI94A98zA3AXmMLgE9nWChtZFTeXKIu++q5fVfYRCniQKGYp4DNfj4QneVRdBON4+iIrOnTtby/CgpVePG9Vf4AnF550SI3iAhNOO3gh444FHnfZrrrnGdWEb6/ABfO9x48ZZoyZFihSx1yYXEPLIeQC//PKLNSfeokqVKtb8wQcftHoaJDq4LiGEIYghkkO9j8Wb4NwF5jC4BPa17WyTJKgwFhbQFJ06ifTvr19D0/DcJAlAhiI+sCpNJAK7Ro0alicbHk60uU8N/I8JEyZYy2hy5BR4gITajj5QwIP+6mL3SnhCrI2ItWvXWqUzIWJLlSplr00+Lr74YmuOXAgzMkG8AwzqQYMGWUbtvHnzEtobf+zYMenatas0aNDgjCCOV+fmcAnMXTBTnz59rPc2bNjgWeMj4TBOsr59keyjl8lZAoU8HGNDhoggXy/GTjJCYknIia2hVKVJDYTf3HXXXdYDd+nSpalW/9ixY4dVGQQiEg8Ep4BxgAd+eiMAhpUrV54j4BO54VEwpkMuwp+S5TunRoUKFaRRo0aWQYPzgXgLjBTByIRR27Nnz4T1xuOehdBChA21b9/eEsUQyU7eG50E9wyTu2Ams60Iw4RzhEI+DhgxiupiSXwfTxfsFwj51q1FPvtM5MYbYWnabxLiP0IW8dFQrFgxK1zh2WefteLjA8ED66uvvrLEPTz2bolI43lF2E8yCXh8b1ORBccomUHew/33328tIy7e6954CKNELS+ZFlWrVrW88eD777+35okE7oeohnXfffdZy3AsQBRDJPvpnoRRTDhDAL4Dw2piDIykbdv0chLmNYUFrqPBg0VeeUWPXixaRG888S1xEfEVK1ZURu9nVnWXSZMmneMZh4BEIyU8sNwsK4kRA3j44I1NJm806vijEy3InDmzNU9mTAlRCA8YnF4W8hBGiVpeMi3gjb/iiiusa/WTTz7JsOqV34BRds8991j3Q1TFgtHiR3APhTMEThHAsJoYAyOJ8fChg7BdhBzBcfXcc6hvbb9BiL+Ii4gH8MxApKOZEx68CK/BA+u1116z3h84cKCrDyxsHxLIvBIHHw9wHCAUAOZpfXc8fMNJEPYzOAfNPoE31KthNRB5uH4wDzfh3O8gwRV9G6ZNm+bZOPFI2bVrlzV/5ZVXrIpJbifVRwOEPJwiAMYmvfExhPHw4YNE+X799DJqyBPiQ9IV8U4O18PLW7JkSfnjjz9k9+7dVgOomjVrWh56NFS67bbbHH9gQeCYKSPwwEESbjJ54TEKMmXKFGnWrJl06NBBLrzwQvudcwknQdjvYB9gXyCRG5h8Aa9x6NAhGTBggBUjnmy5DPiuuF/gusZ+SBTwfVBCE/fByy+/3NcC3gDj0njjQ8lNIhEA54p5Tpcpo8NFSMbg+qpXTyR3bhGE+cIbH4JWIMRLpCvinR6uRw14eH/R+RQVURAH/+qrr1qJT7HohIqHoJnIP4FBBbp06ZKmgAfhJAgnAtgXZlRo1KhRnhyBwIjWN998Y8Xwo4Z6smHO11AMdL+AkJOnn37a+k6FCxe21/obGFzoYQDgEGJIjcNgf6LmOUNpIgMllTt0QBKUSJ06OtmVQp74iHRFvBFt8Eo6MVx/8803y6233ipDhgyRxx9/3BLXKJ+WI0cO+xMkniAxEGFNyeTFDRVU14BHHqVPTeKvlzhw4IB1/SRrSVDTfG3Pnj3W3O+YjtWmw7VXK9FEgnEAMaQmBmB/2lXVrNKJDKUJD5ybzz+PeF5RD0ORjh0p5ImvCCkmPtLyksHgb+DhhAcWvE0jRoyQK6+80n6XxBN4xXr16mUtxyOh2IR/7Nu3z17jbSASEZOMc/XHH3+013oHk3AL0ZeMXHbZZVaiPDor+927i+1HbwLE+Ddv3jwmoYVuwpCaGGL2J/YvSifSIRM+EPLt2okMHarFOxpUrl1rv0mIt4mrAsANHLWPAWrHN2nSJGlFiNvs3LnTmvfu3VvKly9vLccShE+htjfmfiFPnjzW+QlvvJeEIkLSTKlWCNlkpESJElK7dm2ro+nevXvttf4DzgyEF6KxE861p556KuGqRAWG1BAHwT2JsfDOAKMZteNffVUL+d9/t98gJDxwWa7YoOfxIE0FDdHiVFIrgEdz/PjxVqdFPKwQBx9pZYnDhw/Lhx9+aDVAQUWZwAkPdcZdhga8fUigiwcI24Fg8VOXzUqVKlmGJsqiesn4wLZgm1q0aCHVqlWz1yYXCNGAx/rgwYNWMqhfgQHywQcfWN1ocW+8+uqr7XcIyQCE0ng5Fh5FAdARdeZMkRkzUM9Yh6x4FQj5GjV02cmxY+Etsd8gJHRWbRKp207P40GaIt7ppFYYBEigREMh1IUHR48etebhMm7cOLn33nuladOmVkx94IT25MOGDbMEPiqvQDiuX79evvzyS98KfHwHpwmn/jmOP7YBhpNXq7XEAoTUIC4eeKkeOUKScDzatWvnSJibX0E+AIxCXO9eOj7hgK6zv/76q3Tu3Flq1aqV9A3XSBgEhtJ4KRYez1iUbOzaVXdEbd8eQ+8i11/v/VKOKInaqpXIiBEin3wC76P9BiGh8beSVlBsmMeDNEW8k0mtSMIzMZHotgjvZjSgsyu8VzOUdY+W5GYy/wPNiyDw+/TpY30PGA0oY2kEfrD33kxeFflOx8dCiEOQ4++GUgUDx79NmzYyc+ZMq5NpNMTCIIklMGC8FJ+M/YdQKIjX9CoKJQPlypWTtm3bWka9F5OPMwL3GnMdMtyERIzXQmnQW6NBA+3NxrMe1XPQUAmC+Jtv7A95FDSBuvtu7ZVH9+7Nm+03CPEmGQakR5vUigcVmuaY4X8I8Gjj4FHNBn+zcePGVktyM8HTjyFpCHrEmULkdO/e3RKfpu43BH6w995MjRo1SrjmMamBsolIokPJz1DEA44/xBK890uXLo1KiMdLEOO8W7JkiecNtHBBKM1//vMfaxnJnckMYseRW4Pz0Y9x8Rs3brRGC5HMip4ZiYwZzRs8eLBvR008Be5lDoa7OgK2CZ528wxFI6UhQ0SaNUNsol6HWHOvO3JwLX70kV5+5RX9vQgJk63fxufUiU5NZwBEE2Lf0dCpY8eOltfJlIaLBRCbderUsQQ94pkhGCFUIfaROGYEfloT3vd7aTfs8/S6qx47dkyGDh1qta5Ht9xQDTR47LE/n3nmGRk7dmxYQh5eY9Q0jxfmvGvQoMEZAw2jMJGWt8P2//LLL9bcbdDRE8fhjTfesJqnJTsIP8H+CCc8zG0wOrhs2TKrWhOAUZboYTQYzYMjYNasWdb9iUSJl+Lh8ayBeEd1F3jge/TQ6xGaYp4vefNq7zZE8YYNep1XwbWIJNc77xT5/HORSZMQf2q/SUj6ZLJv5Y+9HJ+4+JiJeCOkHnroIeshiyS04Eoa27ZtOxO2E2sCBX5a03XXXReyqPUqGEmoX79+miMKaPCE0IMbb7xR8uXLZ6/NGLS6hxEG0GAIjWlCAcIX1V3QFwDkypXLmjsJzrVArzuMFJx3ACFWCKsCkZxrxYsXt+bdunVzPbkV24/kcAg+nKu4rpKdrBj+VnzyySe+8fCuXLnS6oCMCkO4DuNRHcptcF9FfgnuB+hPQaLE3MvcjIcPFu/GqMA2zZ9/7nap54e88YZe/vlnPfcyEPLduyuFpCTSAw/oOvJJAA5pPCurJCLXKtv1HV29WzZsj/2+jImIDxTwoH///ufE1RuhjMTZNchYdxh4iXfs2GHNky1RDCMJCxYsSHNEATXPUd0HoUPhiEBjiL399tvWgxiJwqF445HQjKQ9fBb5EKjC4RRGvEO0B3rdTUI2zjuEWBmRFEnHyKuuusrqKoztx35zC4ygIJkb9cSRn4DtItq4bNmypVW61g+hcDDEjAHcr18/+fjjj2PSrdqL4B6CKVm+b1xwMx7exL4Hi3d1z5Xrrjt3u/CsufRSLY79AgwPVNVBR2w4sFy8/8eLeFdWSURw2le0i4zFwxsfExEPT1OggO/UqdMZ4Q4g6LEeRFqhJj1MYyGEGyRbwhj2c40aNc7Z34Gg1CeIpEsuHsAwDpDT8Pzzz2fojYfYRyw6BDByEiA+nTSqINoQJmNEO7zuJjRqvnqYmPPOVFeKpGMkvisEM757KEZLrIABgjwGdDyGIZXW8U02sB9gXOJcw3XvdXBvRF4OgAHiROUvvxDNvYd4EBNigpHOtMS736leXaR5czRWEfn1V3tlYgL/FjzHeMrFq7JKohLojY/1vnRcxMPTiYQtAFEVLOABHlyxqoeMhzm8cijdhrCP/LCiiQXCDeD5A5HmJkB4vPXWWyF542FIIYwGQhg5Ck6PisCgQClRI9rhdU8tNApGo6lcFGn4lvEiugXEH/Y5ckvCOXa4HtPLkUgEkMDu5rEJlWAvfDLW+IeQR11/Nw1i34Nr2UtJrRjpTDTxHggSXfHc8EMYUBTAYwzPMTBx3SQycCnAG4/b3IfjRE7E8PHrmIgPDG0wntEKFSr8Q8DHmu+++86qXIOHenVY0eQMiIVHNYxmzZqdE94UDtivGXnj8YBG4h7CZ9BZc86cOY6G0Rhwbpk8h/TyGbDezyMyOG69emmzPtyKNBh5QPx1pEm9GWGue5OPEDix8dq5JLMXHhQoUMC6fzz33HMh59SQVPBKUiv+N4znRD+Pr7hCf8dRo0SOHLFXJh7GY9z3Ge1JJtGBfdimqci0BSJjZ8ROyDsi4vGgNtVAAuORIxWK0YDqHQCeV4r4c0FTGQCPdTQ1xjPyxm/evFluvvlm61ggjptNbKLjq6++sjyYr7zyilUbPRzg/cXxiXQEIjUChXtwPkLghFAn3BdiLeSNF96Ea3gV0ygtWb3wuG+gqhJAtScSIeZaxuiiC8/YM+B/q3uAq9sQD8qW1Q2gMIqNkKEEL5Fa5srEHVSJJ9iHD7fXdu6jL4m8HKPc6KhFvBHwgdVAAuOR3QAP9WLFilneYqKBwEGjK+ybS5FgFAXpeeMhGCE6UfLvpZdeOmPUkcgwXnjsa4w6eAGTiwChnlo+AiYTvoT7QqxGAQxFihSxzkk0ffJqhRpsF6pxgdKlSyedFx6Yew/vyw7hdpMn/O8aNRJf8aECFsrBouQkYv+jbHjoNeCDW7VRZNwsvcxQGueoXlFkwQiRUpeJDJsgsmu3/YaDRH03xQP94YcftpZNNZBEKNUYCTBoEHMOIRvLeviRgLjoqVOnWo1lnAgtSc0bj2nixIny9NNPWw9qnAf0wEeHGVmKxAsfKwJzEVLLR8CE10bIw8iLpTce++X222+XESNGuF4GNDUg4O++++4zBo8pi+lVzEgLw6EIsYGegTceyby4x0DtJghoSnTTPSKjpoi0aMhQGic57zyRSqVFuqpT59ARkR/049xRohbx5oEeqffdyVrxEJRIaIWYdANUEEHMOTrTei2UByUKgVMjJMHe+PXr11sCHk21wPvvv28ls5LowLmMfX355Zfba9wH509gz4XUjHa8Rk4MgHiNpTce/6tdu3bWshc98du3b5fPP//c6i67cOFCz4bSGPFuQqTiFQ5FwgDHwktJrckERrChyp56Sgv5BAHeYSWd5H+Pigx/PfEHVtygeBFt9x2Pwa00ahFvHujhet/NZ/GAd6pWPBoZPfvss5boyZMnj702fuzercdK4HWLdrgc4S9m+N2rBHrj33333TMCHgmtd9xxh3UcvEYkteLdZCdKmyn8WJbPiapAoeLlEA0ktMIYQ7Oj2rVrezKUBtdEYF4TthfXdTzCoUgYeCWpNRmBU+rFF7Uas5/1fgdf5duf9HKpEiLZvD1I6GtOq32981fnB3Fce/LFolY8qh+glvby5ctjUg0lFCBcnXhIQ2w+8sgj1rJXh9/xXeFtN/H2mHtVwJtjEmuvsJNAWGF0A511w61K4wVgqMerKpAZfXNrFC4tkBsyc+ZMq1PxlVdeaa/1FkbAB+Y1oaIUejuAWIdDkTDwSlJrMoJnGnIAECI6evTZY+FjEErTq48WloUL2iuJ4xQtpOco4bnO4YE010Q8RJXTteLhjUMYC4SDW545p8Tr3r17rfnAgQM9XWUH+9kIJ+RGeNUDH0+vsFMgRAkGKbyjhQrZdwEHOHDggPTp08cauYo1uM5xfnz44YdnqrPEAi+ecwAVoTDSiAZsRYsWtdd6i+DmfCa/AeFyAIYvw2o8httJrckKQgRvuEFkzBhcOPZKf4LH9hcrdCjNy91FKvu3CrPnQc147GPsa4h4J31N3h2D9iHwlkIsOuVxgzDB3/Ricii87mjqhZJxEPLZs2e3wqq8KqZi7RWGwHGyqRKEL4Q2RDBEldOdbl944QVrHmtwPaBT74wZM2RTHKo6eOn8wzFEvhCMJvRmcGKEzmlwvqbVnC9wtBQin0KeRAxUy44dWsX4mcyZRe67T3vlcT/zsTfeeOHh76xVRX8lEhuwb+tV1/NHXhT5bI5zQp4i3kEwsoDwh5IlS9prvANEt1Pgb40ZM8YKWZowYYI1UhBN10wIA783DIIgrl+/vmPC+LfffrO+P/5m1apV7bXRY5K/MY9H6AkEYdu2ba1lfKdYYYQnwrm8ktyKkZQePXpYy04eQyeBFx6edhDcnA/LEPWBQp7x8SRsMAI3frzI009rEV+4sP2GTzGV5xDuOmKEL4U8bv30wscXeOM/fEkvd+7pXFgNRbzDZIal7jEQxjBe3UQh2pyIr4fgRvIuQCWL7t27RyzgAYSvqTsePDVq1CguHuOMwL5LT/Qi9GDBggVnQhCiBUIbIVW33HJLVI25gkFHYwhLfJd4JX9j+2E07NixI919GA3wGrdu3dqK5TaeZbdBKA2uC/RLKI/W9B4EMfsAXnjsw2AChTyO3ZAhQ6zwoFgdR5IB5j6bmlMGzg51b1bWv8jixfq1m2AbV69GSTSRbt30tn/wASoi2B/wKagu9d57evmBB3wXVoNLd+JskZ5v0gsfT7CPWzcV6d3D2bAaivgkYLW6kcJzfuedd0YtMlGq8pNPPrEe4igjib8ZreGCbQqsOx44zZs3zzFhHA0QY+kZKhA7iHsO9GRGA+L28f+cjqMO7Ggcr1KH+fPnt+bBjcGcBKEqOBfBvn37rLmb4Pr4/vvvrWWMzEVq5GIUyskwrbRAqFla564R8jCSPvvsM8u4jtVxJOkAj++33+rl33/X80Dg7GjYUMdsY+7mqAm870j+RIO6yZNFmir1ou7x6iTyv2KEU6VjRxE78dtvnniE0dzzjF5+/3/0wscTnPomrMapJFdXRTweDoin9qL32k0QruJkeUm0OIeoaN++fVQi89ChQ9bQOwwClMtD3WsTqw1P67fqAROJhw7bFFh3PHDyQuMwCOpE8TzivMJ3QehXvJK/TSlS8PPPP1vzWOD2eRIIwk6eeUY/KS+55BJrHgn4O3Xr1nU9jAX7dvDgwVbTMVwPixYtSphrwjfA4wuPNvZ7kSL2ygDg7IBQ7tNHv4ahFW9vPFyMy5eLPPigUor36HVDhoh8+KEIKsb5XcAbIOSxv3Esxo1zf9QjRLC5JozmlSe0ZzhRDolfQFjNC4/q5f0H9TwaXBXxGL5dtmxZqsO4yYzT5SVz5sxpzaN56MIT+Pjjj1ut7Vu2bGmVnzOiKR6eVreAYBk7dqy60Z1nlXqMFybMwSlwTiEmffTo0XLxxRfLVVddZb8Te7DvihcvHjejwW1wzrz66qvW90Z1qWg67RoDEvNYgBEMbGcoSbe4F+FeDcP9ueeei+papwEQAUYo9usnUrOmXg4E92N4vs3IJXId4mn8QRlOnSpy/fU6Bh4N2ObPF2nT5mwceSKBkUz0RsGIQxyS9p2Ayazug32eL482qH79Xc+jwdWnKh4cCJVwMubX78ALj2RO4FR5SeMtjzS5FSE0o0aNkpEjR1olJBEfawwDENj0CfHyifSAhucaIw9o6+90SdS0QA4DEoaxP7Nly2avjQwjzjCCgtGTzZs3y/333y8FC7IocKxAsuhUJWZuvfVWK6ch0lCaeABRjgTqUB0puNZff/116xrHCF+keHmfeBazz0qX1oI9LXAsown1wP370KHQ1QXEO4yFTz8Vuesu/XrAAD3VqqXrqiciOAYtWujvazfl8zI4nExm9QZX2W1f7v9v9CE1yeEa8xHGC4+HHOJUnSgtGM0D8/Dhw3LPPfdYwg+e1I4dO/5DWOLvwxiDYIThgd9JFBBfje+HMonxCtfAOQDDAf8TzbSiAeIMoyYQXfPnz1fPnBZWPf9wiFdcdiIAj7nxUMNoyuKQBxLnRCz2P87pcHI5cC1ceumlUd2X4EyINPSOhACOZdmy9osIQChns2YiW7bYK9IBinDUKJF69c6WXvzoI+2F92iTQkfB6Czc2gipiWEfDCegF9471Kx8tm78hu3ReePTFPEQZLjJojYwEiN5w40PXmvyhEofs2bNsjzRaDxUC56VVICHDnGy8NbnyJHDXutvAnMT4hkKgnMAXvhWrVpFbTjg9xE6Y0ZhYIyF6933Sly2H4AX/tFHdcCjE7k+gSMpXtr/OJ9Q6Sjc5wK6asMQiDYch8QQdVyV1YgEFntFOqBhHOLfjx3ThoO6/8utt2qlmAzAyXLjjSKTJomsXWuv9B64TOmF9w4woOoH1I2Pxhuf5pUGD56pRtC4cWMrFppCPj7gIed2kyd4/RAag2Q28MQTT0jFihXT3CZsM0YO8BksJwIQ8MgDwHkfGD4UD7APnfL8oyINjALUKi8bgYcu1nHZiYTpStuvXz+rj0K04D4c3GkYx/L333+35m4QjRCHsY8GcSCacBwSIhDjoY7g4PxatkxkwgSt+i6+2H4jHdS5IBMnijRvLrJ9u0j79jqJFQm2wRM8+4mmITDShko1wCP9KYLBLvdzSUls/4ZtIjO+EFmzOXFOoQp2F1d8n3377ZURkKaIh4CAgINHGA+Lbt26WR55EjsCPb9uAgGPERi0+4dnvUmTJhGJP78DoQQgyEKNGfYaEN9b7GFx1Pd20vtpDD2/NOSKBxC3xqB1ItcH9+HgTsO4D0MMr3XJ8xdNXDz2DcJxkiXJ2TXsEZywkltXrBCpW1d702+6Cd0L7TfSAcfRJLKidjrU4b//LdKqlZ5uv13Pb7tNJ+MOGvRPcT9vnsju3fYf9CFwbEGJ/fSTdnV7DD+XlMRuHTtDpJ6yDdsqwduok36N9X4Hl0rJEnp5157Iv1O6d1JUI4A3HmIeN18IenrjYofTVWkiBSEB6M4IBgwYYDV0cnN73ATnvdujIpECkTVp0iTrGCK0A98FIj5awW3EO84LGHpeacgF4HD44Ycf7FfxB/8f+z1W4O8jxO3AgQNWyVc3MELcj9dE0hBucivuCfDAA/Wcl2HDwotph8GKOPgFC3S1FsTJY/rkEz3v3Vt/LlDgB04vvKDf9yNmxAJhRR4MOfx+lxaIfiwpuXaLSLfntW30mBLwmCMZFHHkiUCxQnoeTUhNhu4Q3LCRDHe9srbhlYVHfsaMGVZ8plvDuYkIhFEfu74vxJFb8fDYDtPxEsP4aPLiVFiHn8CoyHYMD/sYeOCRiAxR2atXL+tajja2GueHGaUx7frfffddK7HZbQoV0ndEfNdNaZR8w/bHKkkXf3PatGnWcqwqbqEkL0K8QLFixaw5If8A9+xQR0+h8FAaEsK9bVsdHhLJ+Qt1iLKLSIoNnuAUChb4gVPPnvYf8SHoxvzaa3r56FE99whIhRqmbDMMzFSv6C8Bj9Ny2bqzBsj/PSLydi/93s979NzvIKQGHVzxHX+PsEdhSGOaqLDw4YcfSufOnWXixIlWZ0R437BMIe8MEFxTpkyxDCbsX7e8XPCoGpFQoUKFpBTwACLQrXh4J0CFIJT9hHBHZ92nnnrKqlIDgr3xWIZnHaUGU5vWr19v7QfMYWCaURoYeah44xVDD5V8TLx1Wk2lcH7Xr18/JiMHX3/9tXz88cfSrl27mIRfoXfABx98YB1T3I+vuOIK+52zmGPJECcSElAP6rkjd9+tlzESHAsDND2Bj26ul15qf9CH4Fkdp/LD4bJyo8j0hWo319OC0S/gVETYzNNv6YitBjX1vHgRPU8UcFnUVY+KTOoUGqO+7/EIChyFvDsgZBAb/OWXX8qbb75pife71YU/TFnvqFrCB0Z0YB9in3bp0sXVYWp4VOfOnWuJM7/GgacFKn1AAJmKH2mB5MS3337bWh40aJCv9gNGEJYuXWoZIDCyb775ZquyEMJpkHQMgr3xELQNGza02umnNj355JNWGB3mxvuOXgE4V73QUTcQNJXCMU4LnN8LFiyIycjB7t27rWv4tttuc9QTbyqFwQhD6VGEOKIGfWpx5eZYYsK9OTWjzAsCH9+HoZkuYwR8hw76NRJSIbQTEZzv6L+izn9l5erXScAJ9TVxO+x0q0hmH/jjcEoiibX/SJH7ntPrBr8kUjrAXwG/8bc/6c8mAmXUd7v9RpERkyMLqQnLpjFCAHXDEVqDh2X37t2tB33Xrl0t7yVuziQ8sN8QAgAuv/xya+40EBeh1GaGIKtTp47nxJkTQIxDxGQkyuFxRlgEBDCaW/kh9hcNuSDe0ZQLo2S4PlFnHkaIKSmJ72288YECyhhus2fPTnWC0Q5Rijlee8n7Hi7Y5nDqoocDri3cE50+X3DccCzhQAEQ8WltP44lwpsASl0GG2SY3M5hyJs3r2WAoBOyqeZD4gyeA4ECfuhQnYSajgHsWyDYhw8XZdmKugD03MXzP14glOaPP/WhjjRUI55gO00S67Nva4/7kN5a4JrTMn8ePX++b+LExeNW3u5mvXz0mJ6HQ0QDE7gBN2/e3KqSgM6SCAGZPHmyVUMcXi4SHvCMwYPau3fvf1SicIJ8+fJZ4uLpp5+2HpzJamiFKuBQFx9GD7zOTjXrCRcco1CPE0Jn4BWH9xU5K/g9hFtg5CywZj++d2pVhrAehlu9evVSnRCmgvMHc7xORAPPy8CAQplfCF6E1KS37/EeDKx58+b9wxgzE96LZiQC5xccArhGIgGOIBOOiYpJxAVQelKdJxaJLOABRh3tEEBBuVZUxInBSJzXQChN+ye1OC5ldwj1KhgxGD1Ne99xW3mrp8icYecKeFBFPb7wHkiUuHgAvw++57bvtPEVDhGJeAAhX6pUKSvhFXGyiLvFg/4TZKOTkDFeeOxPCKRYgAc2YnUBRkxGjx7Noew0QNUPeLNLlChh5QS4Ba4lTOkBMYX4dlSPmjlzphXGgREEJG62bdvWkWZDJDRwLND8KFJhmx4oJdmjRw/rfwAzT4uMjLJojTBU0cI9C9tRuHBhe23o4LxEKCbwiyc+o7yRcCeMqgSvi1uYE/b5q69q1aCe2wkt4IF51mEUsksXURcHLhK9LoExXt13nhGpVFovew2c7kuUHd+1l7Kz/nfW+971DpFr1OM3+LTE60SLiwcm1Olx9d237NDLIaNuxI6gHl4pq1evTvnpp5/sNSQjNm7cmPLyyy+n5M6dO2XgwIH22tiA4zNx4sSUHDlypOTMmTOlffv2Kdu2bUs5deqU/QkCFi1alJItW7aUAQMG2Gviz9y5c1Ny5cqVMmPGDHvNuRw/fjxl1apVKe+++25Knjx5rM/my5cvRRmE9ifSZuHChSlKwFnzUDG/g3NUiS57bXjMnj3b2sbp06fba2LD559/npI/f/6UWbNm2WviA64lXMeYlOi21zoD9hmO8/3335+SNWvWlAULFtjvuAP2MbYH1wjuK5EwZ84cT3yXUFm+fHmKMj6s6yBWE/4+/k+a4Jq98MIUtdPsFRmAz6u/a80NR46kpHTrlqJucikpHTumpBw9ar+RwKS2H5xG3d9SsmcP/djEmJMnU1KGjEtJyVJefe10Tim3WbRKHZpy6rQum5LS/smUlKXq1pnRLWX2opSUfNeq+2IMD2e8wfH6aKLeD/OW2CtDxDF7Bl5DdIREYhnJGHjgUaYPTVOQuAYPWSzB8WnZsqUVN43wJ9QPRxlLL7Vy9wKILQdebG5lvIEYTbnxxhvl2WeftdajCo0SVjHbZq+2/vcSP6HRiwIhcQg7cgp1jz5T997ky8TC2x8q2B6E0uB+gu3JaLQoLfB3/ERGeSOhTrhOA+eBU4ZhTsb9GOnxP3hQpEcPXdIRNd1RDz7R+39g1GHECJxwus5ikoBQGni2QYG8eu5VcAcZ8F+RIS+L1FSnf4S3FF+DcJrLikb23RNsUMI/YOgUIS0o/Yebdyxi4YPBA7d8+fJW+BOqiwBUsFi0aJEc92jLaKKBgDf12ZHXgC66CF2bM2eOJerR4j8cQYWQiFCH7pFYaVr/I7SD5QtTByFxCMOKVNgGA6GLY41cFlCyZElrHcK93Lhe8b8Rx96zZ09rOZJQGr9yUQYhSqFOKG8aOA+cMgxzQngczq0//rBXhAGuV1SWQmfV1q1F0JPETnhPWCDcJ08WddKKNG+uG2AlAYipRkgGvj7qqgdWdvEa11YQ+ULZlJ1aJkWEU0ygiHeBwDh4eMed9NyFAh4UqLqC0oMQ8ahY0aFDByu+2m8eMidBcvH333/vyX0Q3EV3yJAh0rRp07DFeyRedZwvJj8Asdle6tCayMBgQqIyQN4Djjdq0I9XQgx9JeINDD9UJgPIgYomOdYpQyepgOjGfgvXgNu8WeSjj7QHXt33reROH/a+CJtt20RdQFrN/uc/SaMSjRcep8q/rtFeXq+CQ1JDyR8K+LOEm9xKEe8Csa5GEwooO4jGMQjPgKDHaEDdunUtT1uyCnmIWlMHvWDBgtbcS0D4YAQlmvKOaZWZzAj8nql4Em11k1iTCAIR1yC6s2L+yiuvWAY3KiVBxGPd3r177U/Gj127dllzbA/KXEazn83vuhka5CsQFtKvnw6lCbUxkgkfwT3twQf18l13iQRUrEpo7PNVXnpJxKUO6G5w8LCeI6HVy154ci6RJrdSxMeZeFSjCRWUrkMeA8Q8vLt4oKJUYbIK+UOHDllzNHoqXdpb6fwQ0ahgEW19dvxuJLHz+D0TTuD1EpOJcO6iwpC5TyCEyoheU4Pere+I/x9NLLwBteJxv3ErNMh3bN+uw0LQ4VRdfyFRpYpI27Zo9atde08+KVKjhv1mkoA8AuSSJIBhHwqImho/Sw8+1FaH38teeHIuCC0a9KJe/mpV6N54ivg4cvToUauOvtte+GDg4bvzzjutxkAQB/fee681lJ9MmFAacPXVV58RS14BojlWTYpiDc6pHTt2hOx1xedhUCWCGI8E5Bu88cYbloAfOHCgJwxKHItoasMHU65cOWnfvr1roUG+Y49dFBulOUPtBrxpkwhKPuNeBq980aJa3SUD+J7qnmONXCQRCMUYp0R8m6b0wvsNXKZX2/ZmON54ivg4gdAFxJ3/3//9nxWX7LYXPhh41tAVcsSIEVK7dm0pUKCA/U5ygNAFL4fS+Jlt27ZZXmVQqFAha54aEIrIy0C8Nbz9GLWKBAhNU9HFb5gE5ilTpsitt95qTcFeb+ynb775xjFBHQrR1oYPBrXi0csAf8+N0CDfAVEKQhXwR44gkUIvIx4cHmlUpkHn0kRPSse+wqhFT7srUDr3nEQDnVlxW2itRHyop4qfwKHd8WPi2maB3vhQu+xSxMcBCHiI46lTp1pCGXHFXvHCBwKxcMstt1hdeC8NNe4yAYBwQqIoBAU6nXotlMbvIJYaghPx3Hv27JEZM2akOiHeH8Ytqp/8/PPPZ5Jww8EYCRCckRoBbmEEPBKYcS0itC24YZfpwIt9tB0hFnHCxMO//PLLjuVDYLQr2rAcr4NmVuhsjmZsgef6xo0brftNTEB4EhI6J00SZQWKPPOMyLvv6veQHJ/oQh4JrXYCtlVGs2pVvZzgIMXpo8/0cv48ep5oYKShVx+9XCi/nicS8MaHW2qSIj4OIDTlgQcesJYR04w4dC8TLBwSHYghDOsjWQ9Jvl4LpfE7+fPntwQ5SmJiNCqt6bnnnrM+36dPH6uOdiTGFCo9IRQFwBDwE4EViGDQIA8iGNw7EPYGdu7cac1jDcRmNLXh8fvphUchlC0RgBEW3NXV9HRA6FDguQ4D7fBhOwPRKbB/UXHq0UdFxo7VZRXhjc+eXaRzZ5xU+nM4xxK534NJaO3dW6RNm6SJh1+7VWTqfJEWjdR9wnttTqIGp/fC5doL/9Lj6juWs99IMEyC62B1CYdia1PExwGU5xs3bpzMnz9fqlWrZq8lXuH333+35hglQbIvcZYqVapYvQjGjBkjo0ePTnNCTXTUvYfACbd0ZiBoOOc3Dy8EoBk5QE3+tBKYESdfpEiRuH6/cENp8Ln169db3mdMMDowwrIZpQ4DyJo1q/VZjD6EUynJSwQKd/TfQBIySvaayfR0wEjsp59+ak041zHyZ0ZVHAP7t5FScOo6UycQ6oCK5Mql38O5hHV2vwfZsMFdbzz+t9pvaseFNi1eHNr2QukhFh4kUUIr+ONP/fU73JJ4JRvxvSbOFun5po4MS+SmUAipQU7DHHV5bPrGXpke6iZKSNJy7NixlM6dO6fkzJkzRT2M7bXuMnfuXGt7+vXrF3Fb+/RQgtpq8Y55IvL555+n5M+fP2XWrFn2mtgze/bslLx586ZMmzbNXhMeOBZKtFtTRsdlwYIF1vmB7xkP8H9y586d8uCDD6ZMnz49ZcaMGelO/fv3t/YFJhyHPHnyWHNlpNh/UXPixImU9u3bW++vXLnSXusfsP2DBw8+c9zMNHDgwJSFCxdaE44lPhc1ONZqH6odbK8IAv9D7Ut1YqSkDB2aknLkiP1GEDi31DZak9p26/fiAf7P4sUpaqfoSe2jM9sR6oTfz4gtW1LUCaWnVavslXFAXf8p2bPj4rRXxBc8JgaMTEnJUTklZU4Iu8lP4LuNV7fyXFX0NFrdYmPwWMwQ6xRerS4hdVrF+rKZpk6j/NXVZf+VvSIdKOJJUgPhDhFx1113qQszTg+0DFi9erUl0nLkyJGydu1ae61z4HsuX77cM9/XadwQ8RC3OI8iFfGLlUCBYTVo0KAMj0u8RTzOR+xPI8ozmrAf8FkIXGwjJvyN1AzSKVOmpOTKlStlzpw59hpvg2ODYwWBDrEeLNwdE+3BpCfiT51Syma0FvAQ8n/9Zb+RCtg2dY6FJYydQN1v1Al+rijHBDFvhH1akzIKrc9iOSMgpiHg8TvxVHoui/hVG9XhVwIXIn7LDnulg+C0Wb4+9uI1GC8J+MFj1GlYTk8Q87Fk1pcpKQVqUMQTki4QFXj4QhBBhHkFbNe4ceOs7YKn8q/0HsrkH8RbxGM0p3Xr1in58uVLWbp0qb02PMIxrOIt4nE+bt68+YwgD2VKS7QHA6MHXn4vi/i0hLuZQjG8okbt0zRF/LJlSuHk0iIenuiMwLZCPEMYYx7rbQf4HzAYAsU5RgVC+d/4HAwAzNMD59t772kRH+/7uRHxoRgaaYF9AWMnguMxXf1biPj3lS0XwmUXNhCtmaMUr9iuDdtSUtZtDX0bYZDkqeaugAfwvkO8X1g2JSVTGXWY1WGKJeGIeMbEk6QFCcf/Qfk1RalSpay5F0C8M6oENW/e3KpotG7dOvsd4kVwHikj0DpekVZuUWJQqlev7sk+ADgf0SAsMNY7owkJuH7LS0gLXH8NGza0vpcpQ4u8BVQZQ55TtA3YIgLJwMuXiyxcKPLeezpAGEmsV19tfyAdsK0VKuhlfJ94JLnif9auLYLSymZC06pQ9hsSvL/8Us/TA1Vp7FK2rpWVRPB2pOA+X7++nkcArrYrL41NrDi+1mk1vfeJyIkIUyk2bFeHvb3Ind1FDh+xV2bArt06kbX9LSK5cojMVKfBms3R7eZIOGnn3j/SQcfkewmKeJKUKAPW6oqJ+euvvy4lS5a03/EGSLBFHe2TJ09azXCwncSbmCojqECCxmmxBgmR2bNnlzx5ErSOnMeAYQaxDtFuhDuSr13tXozyog0aiDRtqhNZW7USZfmHrjAgiL2S5JoR2L/KwM1Q8JuqNC+95M+yknAAwCgL0xGAR8MP6qtDZMcKk2w5XW3ehM/DE9H47EZ1uk6ao8Xw453UPSy7/WYGoFQmKg1/MlWkw79F7npCpJH6/fdGicz4Qk/xFPUlLrEXPARFPEk6IIgnTpwoTz75pOUtbNSokTX3GiVKlLDmKDuICh/z5s2zGidR0GeMG8czkrr2kQAvN6q/oIKP38Fx8vr5DJGOBngQ7a4KdwO88F99pZXLyy+LLFgg0q8fWm/bHwgBbH+gNz4RasejwhGue79WpQnVWAkCIrbnW3q5aIwGILBJD7fXyw/9T3vVQ8V44N8apu6RF6hlZT+GeniqlBVZNFrZqe+IjO6jTvfuev2z6nWwqI+VmMdlgfr0gWz91juXS0QiHhu/ZI3I4tX+v+5J8gCxgDJ37777rjUEDgExcuRIz3nhDeXLl7dK0WE7YXAgxAa1wydNmkQhnwGJvH9QZvLiiy+25omAH4S8Z0BswfjxIo8/rpVQrVp6ypbN/kAYwBs/YIBe9nvteDS4GqZUIq6JJOu4vcduePzmUyKlr9DLsaB6RSXE7Sa4P+/R84zAZQ2dCA98r27K3hwhcnUY24hTvMyVIjfU0dMD7ZT2HPNPUY8GUBDzKEPp9K1k5UaRR1/SyxfZFagfU7bzKo/0EozoKbBum0jDjmpSO234JAp54g8QuwwvGmpeo6HTqFGjrDhmN7y2oYDtQgOqBQsWWPWm33zzTavzKZrFUMinzXfffWftJ+J9cA7jWKFxFc/ndMC+OXkSndB0vXegDPwM48TTA+7VjupBDi8+8Gmtfos1a0SmTxdp1uzsCEMwECqoN4+QFdSoTwDhgtMCoTSYxyoe3oC/XbyIXv5upx4QSg9sk1Xb/S0lNNXvtmwsUql0dNuI301N1L/yhH7/f/0l5Hj7UMApYmq1931GpH0Ldbk8q1//rS5HLxCRiK+sDkT/5/XyQy9QyBPvAmEA7zsSD6dNm2Z1h/zvf/+r7uMLPS3gDdg+hE2gYUy3bt2shjL4ThDyCLFheM25oDHRM2gzr7jkEg8GMJJzKFq0qDV//PHHmcCdHmhgdPCgyIoVOvYdc2XgW33aowFC3nRGVteObx/kR4/qubovphlWhJGGhg2V+rtBzxPgfItHKE0giFHHI/P5vkrUfmyvTIO1W0S62nnGH78Wngc+VIyoN2J+5Buhx9tnBC4FaFvjha9wlf7bsRztiISIRLxlwLcUGUAhTzwMxC1i32vVqmUlicKTDQ98y5YtrS6iXhfwwRjPPIQ8lnv06MHwmiDg0QWvvPKK1SmZeJtKlSrJS0hEVOzda8cFEA0eqKar6ZQpet2DD+r4dZzb0Qp4g8nliFelmliB+3laeSknToi6cWr3MEYe5s0LO4HUi8QrlMaAGPU5w0QK5hMZNDb1OHQMGCHcuv9I/Xpob5EWjfThiRX42xDzFaP09BuMgIe2BXBaI7nXi0QcVJmakB82kXHyxBsYAY/YdywjDn7ChAlWaIpXY+BDwQh5fI+33nrrTHjN4MGDrXCh44gNTXKwjy677DL7FfEyOFZXXnllwsT3O4alIpRYRwUaeI7nz9cPXZRpzJzZ/pBDmNh4qDGUq4Tg9SPYflTaQbjMZqUuA+M9vv5aZJJSZc2bi3TpEnp5Sx8AzRrrUBoD/ke18iLd2oj8+ps6PTuIrNtqv2mDWPH6av1IZXc2qSvSrH58ts1JEAcfKOA7Ka0b79MFpzOmjIjqzhks5DHswDh54jaBAh4iAbHvHTt2lOuvv96XHvhgsP0IsTHhNXj9xBNPSP369eWRRx6RY8eO2Z8khPgShHo8/LBeRinI119HbdHYKAnrQd5RpI1SZjNnimzySMZeOCCZFff1nj112U0YJqibD0GP6j3wwsM4qVZNj24Ei3wSFo+q0+V/j6pnrVr+LWAADWkVcxbrZYjfYa+KZI191V3HsAa/1pw1TBAH74aABzidQ4m7j9r9YYT8guH6CwN65YlbpCbg/RD7Hgn4TsYrP3r0aGnRooUMHz7cEvbLli2z4v8JIT4EoR4I+YAHHp7jcuXsN2IEHuRt2+rqNytXhuYC9BLly+v9hbAjU/++Rw+d6ApRj3VHjoi8+OK5Ip9iPiIQtVS/hsgFSkGOVXbf/oMiy5Td+cIAkYGj1XvVRe5qLpLF4UGjWGOKtvRQxgdAHLwbAj5fbn0JfjpdhyelhyNjmPiStauqe83t//TKU8yTeJFMAt6A7wav/M033ywPPvigFZYArzy6S/7444/2pwjxLub6pNEZAB6qCPmIZ9hH4cJKEShJgJAau4GZb0B+QM2aIo0ba6MHxg8EPUJo7rtPJGtWPbIRKPK7dz/XY09BHxZlrxRpdZPIiMkiLR8UqXuXyGtqV1Ypo3ap0n/ZI6h66jYo2jJ/uMjsoWr+sXtx8BWuFmlUSxtICO1JD0dEvAH3mmCvPMU8iReoboFOiiAZBHwwaNu/evVqmTVrltVZ0jSLSibQ4Zb4C1QRwnWKMqrM6XCRKlVEFi0SGTlSh+74lUBBX6iQyMdKjUGcoDTn9defFfmmtCY89sY7jxKUJCSwS1s30XbPFyt1/DuE7/h3RUroolO+A98JDul61ZX9XC1+9nMwGMFA3gH4K4PKr46KeGB2ArzyqYl5xsuTWJEvXz4rpATVWpJNwANU3ilbtqwVG19TPcTwOpmAJ9fkCBTCwzuOYBTop59+Yn36CMA526pVKxkxYgTLTLoJ7pdlyohUrKiX/Q4MQoTP4LsgcbeqEibAiPxAjz288/gc6s2TkED8++hpIpmV5kMd+PvvFKlzjb9i4BMBx0W8IS0xz3h5EivgeYYQaNy4sSXkSHKxfPlymTp1qmXAQRjGC3RPBQ888ICMHz+eQj5MLlIPi3bt2lnLTMomjmEaQLVoIXLbbf80TIJDcJAA27mz/SZJD3jfx38u8slUkYZqF2JXfr/L3/3C/ErMRLwhUMynFi//xQpvC3okF2zYJjLji3MnJHE42RmMEBIdJhQDOREQhvGifPnyVolPcPfdd1PIR4AJg6LxTRwjlAZQBqjQ6tVF8uSxV5C0OH5CZNwspemeVgJSKcjmDfX6x3vrspKJLuSRzAtdiK61mLtNzEW8Ac/U1OLlb1AGsNdi5k+obVi9SWSmEutoWFCvvchdT6h7wb/PTs3uE7nvOZFjDOEkJKlB2FKbNm3OEfJYRqdgivnQ2LdvnzXfsWMH8xqIMxgRn1YDqAQg3iYvHJd39xTp/JR+PUQJ9863iXxg11Tv9rzIlPl6OVFBUyk01kLH2j8P2CtdJG4iHgSH2CADODhmfuiE2It5/G3UAsUoQGoTWgXf2FWkvRLrz72jfwcd0Ub30dOoN9X7dUQmzhaZNJcJ7YQkO4FCHt5kdNNFojHFfGgULaoz4VBhCcnZhESNMggtVzFqyCcoxhEcDzEPr/PkeSKzvhK5/UaRFeN1Yiti4jvcIjLtA5H8eUSGKQ3nBQ91rMifV+Shu0S+26W98W4TVxFvMGIeGcCBMfM48I+9fG6ojZmcEPZGvMNQaNBRjwKkNqGsDzKtR7yhlvvqNsNdWqn3lHDHdJN67+luOsQOQ0oTPqeQJ8RNkNT6ww8/WMtIMnUDI+TnzZsnb7/99jliHpVX/vLCMKNHQSL2ACQfKo6gnjch0YLSkohzL13aXpG4xPqOh1vq2BnKyP4//brX/boMIqKQAAY7oOcuuVjkl990yE0iU8ou/PbnQT13E1dEfCDB3vngUBszBQv7UER9sMfdiHcYCgD/C6MBwRO2Y4j6TNN6WrRfU+GfOTFlS6q/94pe7vQUhTwhboKkViSWggIFClhzN4CQr1GjhnTt2vWMmAd43blzZzlqhvjJOWRSKgC5BQCjFzR4SNSgTCbKRhqlGSvw4IcDIUHdzwgvRhUahA+DD5U2gv4JBhKpYD6RA4cSX8RjgAd44ZCfl+KW2yoNcO9etencdrNbvz0rvAPp96yOTUqLtH4P4h2duFDIP5r8N1y78NrDGw8+fk0PM8X6nkGcB8dy568il15y9gIl/mH+/PnSpEkT6du3r9x7772WmPYCGCGAgYGqSSNHjpSBAwdalVjQlIucC2LhkZT8+eefy5w5c6QK6pYTzezZok4cUSeSqBPdXkk8gbq+pVEjrehWrIh9d90AUGSjbXeRCf1FGte2VzqE0WLvfSIyfaFeBwF/2w3/dGoaHvqfyDiliZaOFbnyUnulB0hNV4JM6jERiQ5cqA55iwdExvfTjt5YMH+pyE336EgQjHKkheeeJIGhNmYKjKHHlJa3PnhKzeOOZgT4e04U8odOQEyY8ch37qlPFOIvIODHzBCpfEvG3dGItylTpoxnBDzAttSuXdvywoPu3bvL77//bi2Tc4E33pSa5D4ivuGgHVOBUTfU2U8AIHrR0weRC3BU3txAZNaQ9AU8gCFx5Jh+nnqFwO8SrBEbdRJZt83+oE/xhTsoWNgHi/r0JiPaze863YXLCPm3lIAHiT6MlIhAuCOZGZ3Rsme1VxJf4fWW/ddee62sXbtWZsyYIQUTONEuWiDkWWYyFVCxJ0HDNRKGq67y/TAuBK/JG0RPHzDgvzq8uEal9AU8QM348qVE3h8tsmazvdIlUvsuwSHU85Q+rBxhygQux29+EHG7ZoEvz7jUvPVpTfFonQshn15YD/E2h47om9PbSsijfFRcwB0GQ6+Yk6g4ceKETJgwQd1UUyRrVm9aYQifKVmypCXmGUpDwgIG6lClOHCTogFIYkCg4A3MG+z/vEinlqFrqNw5tUMTAveRF0UOHrbfcAF42BsGfZdAh240+jBHNj3v+ZbI19/rZbfg08RBcOL+9Iu+5xL/cfXlccxnWLVKpG5dPSdRsXXrVvn000+tyjCVK1e21xI/w1rxAaxcqTuPNmsmUqGCvZIQZ4CAN+EmgSHIiGIIR8AbalURuecO7YmftsA9PQQP+3w7YiPS75IWVcuJDFJGCvjpVz13C4p4h0BWNkCzg9Ti4jHksmWHyJzF6qRalPa0fD2ds0kB2trB6tuwgQc8Svbu3WvVYW/VqpW6Scd42I3ElIsvvtiajxo1ikLegIpG8MJ36SKSObO9khBngMf64YBwk2jzBuEIa3m9PmXvUX/PrTxBbLuJ2HA6IgODqUUKZhxeFA8o4h0CJZfSi4uHVVq7jcjtj4i0fizt6UZ1n+6qTvzN3zAEMtbAQ7BB3cDWbdWv47q/TRfBx9RBpzc+KhAPjzhqCnj/gzKTDRs2lHHjxslKeKAJITHFeKydLPqBuPjX/6OX2dU+tlDEO0R6cfHwwkMonlLz/ykR/9mA1Kfx74o0b6i7otVsrbvBUsjHDiS0Yj8/31e/NqMpcQH1i/va/xheeRIRf6t9h/KNEPH58+e31xK/cuGFF8r9999vLSPXgRCSNk44go3H2klvdaAe+pEhxjGFIj7GQMCjEVT3V/TQC0o1NaiZ+oTyTEN7i7z/P/17Hf4tMmiMyLwl2ghA0wXiHPvtymCvqf28YEQck1oB7pamHNlWdXAZUhMRa9askalTp0rz5s1ZV5wQklQYH58Hojr+gXGKPfBfkRUb9DJxHor4GGIEfJde+vWI1zNugHDhhSJtbxYZZov+f6vfufVhkfrtRR57ScfNownA0rW0bqMBmhn1bzHS0aCGLp8Vt6RWA0Nqombfvn1WPHyHDh0sLy4hhBD3QUjNBy9oHfThuMQsvw39EIsykxic/+ZHvZxRNAZFfIwIFvAj39ChMqFUl4N4v6OJyMIRIp++rcU/fhfln5rfL9LkXiXqO4h8/BnFfKRs3iEyXh0f1Ph3rTxoYEgNE1yjAvXFSWLhsWbihHgWL14pcIq1bipyVwv1rJ2lC3skEoFlJp3+bgj1RYlOkC2DqskU8TECiazIzAbhCHgDhHy18iJN64nc0lg3W1g0WuTzITqDHM+3+/97VszDO08PfWjAI9BvuN6HXe/Qox+ugJAaUzKO3nhCLEyC8ubNmynkgdkH3BfeAw/bH37gsUmDzOpSbnezyGm1e75Sj7fDR+w3EgCUmfz4NX3oXxvs7EiD+Vv9nlX/p6xeTovz1E2SZ59DQETf3E1khjqgO37UcfCoWIOaqU72d8F9Y+u3StSvFnn0Jb0Oot8w8P9ELitqv3AZbJc5w7JmEale0YWwlSBg6DS9VxtIQ9Uxwo3GNeB9RyMXiHh45VFGzqnsoiRg5syZVn34SZMmWVVNiP/Zv3+/1K1b1xpdmTdvnuTNm9d+J0lR+0CaN1cPlhki9evbK4knWL5cpFEj/ZBD875yStnFkRlfiLTtLjKhv86p8yKrNoo07KR1yw11REa9mbF32S/g8X2vEtpT5qtn0YciNR1qUwItedM9InOG6RKZ6UER7yBGxEO491QnKnbs6okipS7T7zuNEfN//Klfb/sudVHvJZC0W+ISvQzxXP4q3eUtXuBs/+BTkf+8ITLmbZEmSsi7zuLF6i5nC9ABA0Q6dqSQDxGK+MRk4MCB0r17d5k7d67UqaOe/MnMfKUQbr4ZJ7t6onvhhkXOMGeOyK23ivTpI3KPUl1x7sbsBxGP0OLvdoq8PFBX3Js+SFfDSRQmq+/UWWm+cf2cOQaIh0foNMJp0Kiqfg37jTSgiHeQuUvUvfY+vdOXrdNJHYhtj9d1HSzqvQIMCmxXagbGFcVF7r5NpFyps+vRRKFyGecNEZzpE2eLdHpKH5NYGlhhAXP+449FHn5Yv6aQDxmK+MRkwYIF0rRpU6vyUOPGje21SQpFvHcxIn7aNFdGSSDi2zwu8u5z6rmmNsOrzjtgRsDvuEmkn9reLAnSt+zHn0V6vy/yf48o7aJ71UUMBPzIKbppKEAINaIX0oMi3kGGKesJiawXZlIarKVIf3UgEuVEjZbUDAw0tBo8VuQHdREYcDbihHz93yKX2h57Q7TiHnkKyCHA/8CQHvIUPHPTo5CPiFmzZp0R8Q0aNLDXEr+zcOFCadKkCUU8oIj3Li6LeDQrvK6tfo59MVKkSgbx025y9Jh25I2cLLJ8vEil0vYb5AxL1miNAuAE7nDL2SJ2aUER7yBvDxPp8arIY0p79e6ROHFfseTQYR0GdEDNwbc/6bKa4PwAgZ2euA+VlRtE3hyqpqdE7mvjIQFvoJAPm19++UX69OkjPXv2lAIFCthrid+hiA+AIt67uCzi8Vx8d4TIM2/rhpFeDakx4BG35VuRCle5nxvnRUwsPBJakUsZStE1ingH6av01+O9lZh/Ws072ytJWOBsRFIwurwFkpa4DwdkyON3V07wSBhNagQL+X79REqX1lczSlJS0JMkwIj4N9980+rgekEyP/Ep4r2LyyIeIKTG63HxJDTCSWg1UMQ7yIJlIs3uUxfVYHU9Z5CMQMIjLXEfLgXy6mE8L8cO/kPIGyjoSZKwfPlypYm0KFq2bJlUqlTJWk5KKOK9iwdE/Ewl4u+kiPc94Sa0GijiHQRx3xCZqL7CoSISFRDyK1eKnDwpsnWrLkFpwCXbooVIp07eOdEKFxapUsXj1hHxC6fUzXTEiBHywAMPMKSGIt6b4IGP8sCPPy4yfbrrnviJSsQ3ooj3LYHx8KEktBoo4gnxOoGCHihxI5MmaTHvBUzPacTw3367SGZmc5PoYVy8DUW8N3G5RryB4TSJQSTx8IAinhC/ceKEyPbtInv22CuiwInLf8cOkV69tBf+lltE2rcXKVJEh/5wSIpECEW8DUW8NzGhNC7ViDdQxPufSENpAEU8ISQ6cAvZuFHkRXUHwrAyXkPQ4+H2r39RzJOwQTjN4MGDrYZPFPFKxDdrJjJokEi7dryWvIIH4uEBRbz/iTSUBrhjOhJCEgcI9orqroMwn7lzdQIuUALMSsBVYkw2b9YxpE6DEKOlS0W+UE+ytKbAUCTieSDgx40bZwl4kCNHDmuetBQsqOfduomsWqWXibvgXvbDD94JaSS+5vgJPUcoTdUwa/1TxBNCnCFLFpHatUW6dNHew0AxX726jht1ktWrRTp31iEG11+f9nTddSIjR1LI+wAj4O+++27rNbzx18IQTGbKqqf6m2/q3JOvv46NMUzCA8aUbWSeMbJcBOWTd+2mTeFHEErzzY96ufQVocfCGyjiCSHOguH+mjXPivl33tHCA2Uzly07mwgbDZ99pgX6jBl6SPvzz1OfjCFx330U8h4nNQHftm1bdTolefgIvn/dunrEC+fx+PEU8m5z8KBWzAgZLFPGXukOxQrpObqhrtuql4k/gIAfOUXHwoNIGoQyJp4QEluOH9c178eO1Q8+lGVDFZtIE8Eg4G2hJx9+qMttplUzH3dJhPncf79+DVGPh262bLokZrhuDxITKOAzAKJ9zBhtGEPMDxumr6ELL7Q/QOKKR+LhAW6pfuraSs4SGAv/wQsiHW6hJ54Q4jUQZoPyk4iNxxMHQm3ChMg88oECHkKmVav0m15B5HRQd8n339evH32UITYeZOvWrRTw6YF90aaNNoABwsjuvVfngzgxskV8C2y6kiX0MkNq/MXf9uMHXf4jEfCAIp4QEntQO/6OO7RwBpEI+WABD09YKBghv2ABQ2w8yMGDB6Vv377W8gcffEABnxZGyCN5HOczrocbb9TXwuzZekISN0V9bMGoiMeSWk1IzcMviAwaI7LtW4p5r4NB4p/3aCMsX57IB4UZTkMIiR8QGFOm6FryuHstXqwr22TEli0idero3w9HwKdGcIgNBOQ11zC8xgX++usv6dixo8ybN08aNWokH330kWTByA1JHzSAg4iHNx7gWgI5c4qsXeuJZMuExSNNngLBpoydIXLPs3oZp8Pw10VaNj57ahBvERhKM/9j9XhTj6BIoCeeEBI/EAePGHYkuYLXXtOiOiO+/FILeHw+GgEPgkNsHnuM4TUuAAE/fPhwpUU/UzZdeyuMhgI+RBBChpGtNUoJTJ6sOzibKX9++0MkJiCpFbz9tutJrQYI9dZNRRaOULfIJ/WtssO/tVcenUB/22t/kHgCPPI2bNfLKCtZs7JejgR64gkh8QeexK5dtVcecb633Za2y8iE0SCcAGLeKc8X7qTwpKFRFWLlARrqYJSAHvmYYgT8Qw89ZL1esGCB1EZ5UkK8zqxZOqkYlbE82EE30CuPW+r5aurYUonF5+wPENeJprlTMPTEE0LiDzyJqLMMlxEE+rp19htBIIwGYh+gEo2TQ9fwyMMDj79vvPKMk48Lq1atOiPgBwwYINcgnIkQrwPDH44HkC+fnnuMQK/86D4in6jp3/fYbxLXCfbCh9vcKRiKeEKIOyAG/eWXtZCHiE9tUNCE0bz6avRhNGkRHF5DIR9T4IXfsGGDtYyEVsTEX5RehSFCvMK2bSLDh4t06iRSurS90ntAyFcrL9KsvkjTeiLFi9hvEFeBgEddeNT0B1XLRT/oSxFPCHEHPGkwHI054tKDvfEIo+nZU8fR/+tf9soYkZqQx8MaYT/EMUwYzWM43oqKFStSwBN/AGcCmtXB2YC8HtwzCAmDlRtFuj2vlwe9GL0XHlDEE0LcA5VpevfWy7/9pudg/fqzYTRDhsSnAkSwkEf1mrvuEjl0SL8mUREcB+9IGA1GS+DV56gJiSUQ8CiJaxufkjevnhMSIsFhNO2VHehE6hVFPCHEPeCFh5cdSavo6IrurhBk//d/+n3EwccqjCY1jJCfN0+kY0fdmREjAsz/j4rUBLwjYTRITK5eXddHJyRWbN2qG2wBNK1jDgcJE3jhnQyjMVDEE0LcpWxZ3XkVceiocQ1hNn26yC236GHreAMhD8PigQe0eH/wQZFPP9UGBgmbmAl4gGMCL+mJE/YKQhwG59eiRfpe8M47uuEWm5GRMDiubk/rt+llJ5JZA6GIJ4S4C8Rc27b6IXnkiA6lAUgeczNeumpVbVggJh+hNRD1SGzDQ52EREwFPEZsvv7afkFIjIAXvkcPPWpYqRIFPAkZPNJWbRR56H8ij72s1znphQcU8YQQ94FQBlu2nI07zZ5dz90CD+2bbxZZulTPx43Tw+gI8dmxg2I+A2Iq4AFGbEx9f7fPFZKYBHrh0dyJYTQkDHb8KNK4s8iEz3Wt/gXDnfXCA4p4Qoh3+P57Pe/bV5egdBsIeSTVoiEVEmzxGvXt4aVHt0zyD9A/cPny5dK1a1d5EKFICscFvEloBV45V0jiQS88iRDYffOXiZxSduBL6pEx4L8i11Vzvo8gRTwhxBvgrvfuu3oZHi+n73bRkDmzbnM/f77I88+rO/MpkcWL6ZEPAgJ+4sSJcuONN8q0adOkdevWVjdWRwU8CPTCe+1cIf4H9yJ0cn7jDb38wQf0wpOQwSkzbYHIk68pka3sv+uqqkdIjCJDKeJD5PRfIn+q5wbmhBCHgUgGEMfwdHvRs4qQn2uv1cm28Mj16iVSuTLDa2wg4KdOnSpdunRRu+K09O/fX4YMGSK1a9d2VsADk2RMLzyJBUiwR3L7pEkiN9ygE+/phSchYAR8uyf08tBX1GOijP1mDKCID5H9q0SW1NVzQojDQBwbz2rhwt72rF59tS5BiVEDE15jxDy8d38lp6V/+PBheeaZZ9QuOU8GDRok7dq1U7aZbZw5DYw9gMpG9MITJ4HywkgPzrEXXxT55BORLFnsNwlJm2AB//FrIrcpGxCPiVhBER8ip//WBwVzQojDQIhdeqlejuUdzwmMRx51oxFeY8Q8Ymevu05XskGojRGaSUKOHDlk1KhR8uWXX0qbNm0sMR8T0DVl4kS9z7NmtVcS4hDwwj/1lD6/brpJJFs2+w1C0sYNAQ8o4sPk8FaG1BASE9C9FTXaMfcDwWIezarQmGr0aJHGjUXGjEkqIQ/RXlEdO0wxE/B4Ok6dqvcxchQwAkKIU+D8ghceoXGvvy5SsqT9BiFp45aAB+elIJCRZMi+xSJLGqoFtbdqzRPJ/y+9nhDiEKg4ghKTZcpoMe9H4CVGe/YuXfTdvF8/Xd0G1Ww4JB89qBZSo4ZeRjdds0yIE6DiVIMG+tpdvVqkVCn7DUJSx00BD+iJD5E814pUHqYW1IE5/oteRwhxEITUGG+8X8G2w0M8TN0scBdHzXt45Tt21AKBnUUjB0/IL7/UXtJXXhGpXt1+g5Aowbm1ebNSY9PohSch47aAB/TEh8Fe9fxYqp7HNWaKFGxkrySEkGAQRgOv8a+/6q6vEAfgtttE7rpLi32E4jhdtSVRwWPqs8+0MYQwpgXqyVmtmv0mIVGCOPhG6qGOkTRUoVm5kl54kiGbvxGp1UbbfW4IeEBPfBgYc+c8VpoihKQHhED58iLXX69rTE+ZoofpP/5Yl6zD8iqWugqJQAEPBg3S4UmEOEW+fCJNm+oKUwsX0gtPMuTEXyK931d6UC0PfskdAQ8o4mMIa8sTQqxYeFStQak6eJDRvh0gvAZVbJK0JGXIIMyhUye9DJHVpo07T0uSuJQooUfMcG4hWZrnF8mAlRtEpszX4v3W6907ZSjiYwhryxNCzoDQGYh505wIJSnhkW/XTnvqZ87Uw/qMcDzL4cMib72ln5ADB1LAE0JcBaEzy9eLjJqqXz/SQSRLjNphhAJj4sPgjy9ElimLq+ZskQL17ZXpYH1eWWnW5+vZKwkhyQ3iblHGDtV4hg8XmTxZC3c8HTDv3Vvk8sv1Z9H4Khk9g8gpwD6C5338eJFmzfQya3YTQlxkyw6R6q307bplY5Fhr4pkdjG1iSI+DCjiCSGOgmo127eL7Nkj8s03Is88o9cjeTNQ1NeqlTxiHgIewv3uu/U+QCgNvPE5ctgfIISQ+IPb0eCxIj1eUbekniIdW4pkc7nfHEV8GFDEE0JiBm7FqGiza5d+vWOHFvV4ckC8B3roCxYUqVBBJLOL47ixwAh4NNDC/kASK0JoEu17EkJ8BW7DEz5XtyYl3sH84SI1KullN6GIDwOKeEJI3DCiHtUyAj30WI/5zTeLtG+v6+snCj/+KHL//fo7InymbVtd6YcQQlwiUMDj1oRqNHc288atiSI+DMIR8adOiGx8SGSXstZqLxDJd539BiGEhIMR88ZDj5j6jz4SmT5dv04kzONo8GAKeEKIJ0Ac/LW3e0/AA4r4MAhHxB/cKLKkgUj+eiLVRoucz54uhBCnOH5ct4U/etRekUBcfLGusU8BTwhxmcA4+Ld7iXRt5a1bE0V8GBgRX66PSO4qInmuTVuc/z5HPWPvFKk8TKRwC3slIYQQQgjxBT/+LFKlpchff4vM+9gbcfCBsE58GJx/oZ5v7qG97DuHKystgz4t5yVQuCohhBBCSLJQrLDIzA9FFo0Wuaa8vdJDUMSHATzvtReKlO+rX298UGRNO5HdU0QOBPRowfzIDjU/rV8TQgghhBB/gdAZeN8rl/FmhB/DaSLg9N8i+1eK/DRECXj0aTml15d+WSRbCZFDW0W+eVGtUCZSrblK/FfT7xNCCCGEEOIEFPFRgAo0R74W2bdIZGsvvQ6C/tRhpd8zi1z1X5GS/1E7meMdhBBCCCHEQXwr4hGLfmCdSO7KSjC7XPkFe/DwVpFju0T2TBP5ob8W8ednsb3zl4lkKSKSKwm7pxNCCCGEEOfxrYjft0RkaUORWvNF8tW2V7oM9uQPA0W29hQp3kFk1yf2GzZG0BuyXiqSsxyFPSGEEEIICQ/finivdUPFXvx1osj6LuoFYuHniFyQTXvnkeS6zW64GBhak72kjpnPlNNeQQghhBBCSAhQxDsEklkXYUTgtEjFD0QuaXPWw449bMJtAkGITc7y9MQTQgghhJDwoIh3CHRoXXOXTmYtchuFOUkckH+yf5WuygRwbqd31zg/U/qN0AghhBASPUkp4v8+KLJzqEixDiIX5bdXRgn2IqrSXJCDAp4kFvsWiyxpaL8IkdoLvJOrQgghhCQiSVn88MAqke3/1dVtnALCHbHtFPAkkYAX/uAmvVyujzKaP9eGc1oTPgOM154QQgghscH3Ih6x5hAaoXLquMjOEdpzjsRTQkjq4LraOVxk06P6Ncq5FqivR77SmpDjQQghhJDY41sRj7hbsOkxHa8bKgfXieyZLFK4uRIlVe2VxBegkdafK0T+WHh2OrRZryfOYgT8xof06wr9dZx7qIRrXBNCCCEkPFwT8fCEb9imRMJ2vRwuEBTl++nlcIbuT/ymRV/R9iIXZLZXEs+DY/brBJEl9UWWNxVZ0UzPv1TnwS/jKeSdZv/KcwV88U7qZhFComqkxjUhhBBCwiPuIt6I9/4jReopIX3XkyKHj9hvhgEERY7SejlUrx8+88sYkfMuEMla3F5JPM+pE+q4jRVZq4SkqPOn7Gsi105WRlxf/Xrd3RSMTnP6pJ5jH4cq4HF94feuUALees24eEIIISRmxE3En1AP+NWbRAaM0uL92bf1+hfVAz9Hdr0cLuF4/SAudinD4ZdxuoZ7jqvsN4hngcG3f7XI+q5KqKOJlqLShyKXPShSsLHIpWpd2Tf0+lPH9Jw4S44yGQt4iHdUsPlpmK4Y9R2MK4W5PgkhhBDiPDEX8X+pB/ySNSJde4ncqMSYEe99nhaZox76LRpFXtElnJCaA2obNtyvl4u2y1iYEHeB9/3n0SJL1fmxZ7pI4VtErlukjt2deiQFYI7RGFYEij9GuKPUK8Q7SlCaBFh472vPDy+GnhBCCCHhERMRb4T7FytEhk4QadBRZOxMkSZ1RT7po8V7l1Yi11SIToAFhtSkByrS/Pi+Xq6o5nlr6mW/AyGFRE/MEwVLHC7R3ncrJludH5UGiVT+SInCamcFPIkt51+or83UvOk4Rkh6hXCH5z1YvGOEJN91NJQJIYSQWOJYsycI91WbRP4+KbL1W5HHXrbfsOn/vEinliIXOfxgD6Xp04G1+jP56ohUG6sFSiIAsbtUCalaSjj5vbEOhCFCog5u0OFRiHVH2NPlDyvxXj1tY+/3uSIrbxGpPl0d//r2ShI1OB7oo4CykkaMW8dopa4bHyjcrZAbJfbZpZUQQgiJH1F54lPzuN/Q5ayA7/uMyOyhIvM/jo2AD5UTv+t5cbVtiSLgAUKIYIIlQgIhBCMMEkvAKyoMEKk8RCRvjbQFPIkdEON5lfEUKOCN990IeFStgdcdxjM974QQQkh8iVjEQ8APn5S+cO9yu0g9JQSuq+aegAdHv1Ni9zRFhpeBxxcjChhRQUhGqBVRSGyBeDdJq6bkpAmb4TEihBBC3CNiEb9yo8hDL+hlLwp3w6FtItvU9oEsl+g58R4QgwgJolfXO6Diz7quIksa/NP7zmNECCGEuEvEIh4hDohyQKy7m8LdSnRMsb3tqUT3712o1p8SKd1bJFcFeyUhJEMOfy3y20yRYu05QkIIIYR4jYhF/DXlRb78xN1Yd5CzjK5Q831fkb//tFfa/DpJZGtPLfT9nvjpZRBykWhVcojIX7/peZHbOEJCCCGEeI2IRTyEe/WK7ofMXJRf5LKHRI58p73xBoTRoEwhqDSYXvhYgqoyS+pm3HCL+IszI1ss60kIIYR4johFvJfIUUrPAz3xJoymzGvak0hih1tVcnB8j34fIDaJ41j7OI1QNUIIIYS4R0KIeOtbKJGBGF5UoTHJrAyjSWxQs9yUpMxcUM+Jc1xUQOe+bH9O1+8nhBBCiHeIu4g/rUT2b3v13Cky5dBzxL9DyDOZNfHB8T24EQsi5d4KrXMvCY/cVUTKvqH39Z6pupY/PfKEEEKIN4ibiD9+QmTNZpH3R4uUb6aXnSJ3Vd2aH/y5mF74RAei8udP7bKH54nkr6uPN3EWeOFzKSF/3oUi376pS03+MJBinhBCCPECMRPxp5TQWrFBZOFykflLRR76n0iDDiJPKTFw/C+RPLnsDzrAeepbZC2hl9GYBt5ZeuETEyPg19+jX1ceSi98LIE3/rov9fUEtvU6K+b3r1bXuTLOCSGEEBJ/zktR2MtRc0KJc3jYMf/xF5EH/mu/ocB/addcTTcrYZBTpGo5ZUE4aEKc+E0ZDOpv/n1QJJP6+7XmaAHiFVB+0areovZDnmvVd3egqs8fX4gsu0HX8EYJQLfIaDtOHtXhGIWa6mMTCVb4zCZlpC0S2fKkXld5mMgldySPFx7nELzg6G6b1vmD5OKD65UBW0l95kJ7pQPg+j28VR3rhWebp2G/F2omUvIpZUhdnTzHgRBCCPECUYt4/PbG7SLf7xIZN0vkMyWezXrw2r9Fyl4pki+PmpcUyRyDkpRIZv11gsjaDlrsFVHCrspwJWIy2R/wAKijjjKM2C/l+2nvMbYvGkHvBxGP4/HTUJHNj4tUn67er2+/EQb4G/D8blHnksV52gOfTAIe7FsisrShMlDnpx0qFspnosGIeVQF2qmMqD3T1Ep1PMq9c3ZEBEnGFPWEEEJIbIlYxMPbvulrJRjWiTynHuD4K5mUKG2shEPnW/VywXxKsJYSuSDGD/M/VyoR2VhtgxLzWYtrb+S/luka8l4BXtSdyrDY+JC9wgaCPlf5yMR8pCLeGhVQ++z0Se2tzXNN5IYESG87Dm0R+bKaWlBCDx0/89bU68MBgnFBWbW9x0WKdRK5+CZlqN2utz2ZCOV4W5+5Xn1GGdOxNuxgXP0yVmSd3Y/Bwr6bVP5IGVmtKOQJSRRCGQkkhMSXkANa/lIX8JI1Il+s0FPXXiI3qof3s2/r99/qKTJjsMhHr4rcVFeL+UqlYy/gIdwRPoA5qpSUuF93mkSVGi+Bm17xjkrILtAirHxfvR7JmYgxXtNOGSPL1feIyKQKHWNMLGmoBSG8trgxxwKIvL1f6eUK/bWhEglZL1W/P0Dtw8xKNI5RorGLyK8T9d8n7gGBfklrbZzVmKYnHCewrrPIjx/q449wKkKIv2FTP0K8R8gift02kYZKhN6gBBSmsTNFmqgL+pM+InOGiXRppTu4ZlFCK57Ao7zlCbWAKiVKDJsh/VOH9dxLQMgjxAEe0kvVPjSCvpjar38oIbTsJpEf3hPZM0NP+5XR5LSoxw3YjAbAkKg1T3tWYsHh7TqMBscmZ9nIvbL4veKd1P5aqEcu4O21RKIyGhGjfWgzBT3ACNRhdZ3GExwbjK4UUMYgJhwnhDrhmG/uLrJcndN7pujPEkL8i1tN/QghaROyiK+sxPH84SKz1QMa0wK1PORlkaZKkF5TQT2z1UM7nkC07VuqRS8EQyUl6LJfaYfQqG/18xhvV84IFPTwXlYYqNdve1bH9q+5S2RpI/39UA/dCTGP/YH4dIhgeMZhSOS7Tm+Lk+DYYFTh97n6dTReeIMRi9jmSh9ihRKJPZRIbCrypfrbEPSJLuatHA917H5S3zW1c9tqfvWIXnZruDvQO199qpqm6eRXQgghhDhLyCL+IiUKalcVqVddT9dV0+vcAELtl/Fa5CK8okgrkcK3KAGhvk3OcjpeetcInYDnBy7IrIVPnSUi1dT3qTpapLQykABEPcJHoh1ZgBGwZ7JOAC7UXHtMYyX04IFHiNDWp9SLKL3wweDvFL3TFolTzoYlwetrxHyieudhCF3SRuS3Wer7bbJXBoBQKYDRCuQ5uIUxuAqq67OAOg8irUhECCGEkLQJWcR7CYhEhFPAK1m+vxYtF2TR72Fe7C4lJJR4RKUOvwg5bG/OMiIX36Cnyx44K+orD1Hfy+5KGwkQ8IghX3+vfl3yP84K+JSTZkHH1+94TS2f1t0+/7U8ei98MGdEYmM7LEkJeivMRpHI3nkcs6Jt1YLazyipGshJZeSZsJVcFdVnkyzplxBCCEk2fCfiEUaw43W1oIRMJSVuL71bJFM2/Z7hgqx6vkUJOog4PxIo6iHKoglXQpy0aY5UcaAS1dX1slP8vU/9UMfj2I96dAQ14S9uoo5NV91wyykvfGoYQW/EfGreeasBWIJgiXO1r1Nsrzs4dVwbaBh9wiiUm154QkjiAUfQ0R1YiO39nBASHr4T8Yc2KpGIONubRYq2Sf2GAs9vxUF6+cTvep7IIGzIhFIEg5vv3oVq4bTuuolwDKfzFzIXUj/U//nubTU7KXLV/+k6/caYigdpeefxXQ+ssT+UAGTKo36oqxbhZCYuHrHwuyeLFG6pzvsP1NsuhbkRQhKTk4dEvh8gkr2Udi4RQryBr0Q8BKlVhvGUSPG70/YIYH3WEnoZXuhEi402mGZWKFOJEpW7p+ia+YFJjzB6tj6tFtSRhsh1WsDjmBzbqRbU3z+4Qa8reL27cdBG0EPM11qgzhWEXiUIGJWBoYLcBhgnVsnQYeoNdRwuV+fBhbn05wghxCmOfidy5BuRy+73Vv8VQpId34h41Jr+5VPd8h1CNNtl9htpgGRRgPKTfg2pyQiMOKBMpVWicqHOE1jeRGRDN10ZBiUqv35BfVDtL1TAyV1V/55TQMCj2c/GB7VBcUE2katfPFvm020sMV9dCVt4rxMEnNfGKEHzq92TtFceidFe2e+EkMTi7wPqh3qOwBNPCPEOvhDx8Dau66Trm6MCDUJlcpS130yDwJAaNJxJRG88wiZQphICHeEjVUbqaiAQ1iuaiyxW78E7DyF7UQG1H75wrnILvP0/j1YGw3369RXKWDpPCXkcHxJbrP2sHqgYAUHlIoRKlVDHgcmshJCYkGLPeX8nxFOcl6Kwlz2J6TAKb2+Je3UYTe5qWsRkxJ/LRJbU18v/WqFDERIdJDkizAJVYtBoKeVvdd/NrPaXHXpkjna5Ptpzm7mgngeHJmG/ozFUWo09UKt8z3S9jLrtGBlZ2li/RlOm3JX0MnEejLKsaKETWHGs0VwJZVZpQHkTXEtsV0/8Crqh/6Tu8ZufELlmgi62QAjxBp4X8X8q8Y1Wz9hKeJvRnChU4G3+ZZzI+q4iNZXwyVfLfiPBgZccRg+qlUDYoQynCT86+r3Ipsf0sqH8OyJF24lkCihjGbjfU0WtR5Ls5Q8rMWlXu/lpiA5fQo37yzBqEoKhRcIHxtVXNdWCerjmqyNSY9Y/KzQR72CupcK3aYPLlMMlxA8c2SHyRRW9jA7fGNklhHgDX3jiIVogGhEiE64nC0L+6A9axAZ7mxMVJJgu/pcS2Xfq+GncdM944tX+QDUT1BU3gh5iu+ybuja9ISNPPGLgg48HYvBRYhLQGx870KkYxxdg/yMvIm8N/Zp4D1xL6F/w86ciNT9X1001+w1CfABCMBGeidK9eJ5wxI8Q7+D5y9HEfcMDH8lQNMRr9iuTR8Bj6NOq4KPmKDmI0YfA747l4FKMaI9vNREKwOz3AvVSn1I7Hrmr6AZP4Pgvek6c5fRJZaSt1w9SVIoAp47pOfEmuE4ubqYWUv7ZpIsQX3CeSJZi+r5DCPEOvCQTDJQCg9cPN10ks6aHEfQFGjpTwQUe/ayX8kYfSw6s1SVFQfar9BxhNcTbnDGkPT3uSdwEIzYIvcKcEEJCgXIrwbBqtivKv+3esD1Cdo5s1yE7xDnghT+A0DIFGlnlRY6HEoW7RumEZkKIf4GBjtwJ5DJ5JcgVI7pHvsaCfk0I8RYU8QmEdcP9Ri1g6LO4Ox5xeP/hddz+P5H19zHUw0ksL7ydlIxKS5iQkPzreJFDW/R6Qog/yVlWX9Pf9hH56w97pctYI7tP6OVE6rdBSKJAEZ9AnHPDzavn8QZx8bW/ELm4icjuiTo+nzjDqSN6Di88korR+AkiHl67v/fq95IdhCLsW6KmxQxLIP4CXa4vvU+PpqLTuBc4tkvPkdSKkraEEG9BEZ9AeCGUBnHxucqLlHpae+TNNpHo+PugHmYH8NaZxk5WrLUS8Ye/1iMxyQ7qsS9tKLJETVZVK0J8BIowAHRj9gxMaiXEs/CyTCDgycmUSySnEnlu33AxNFxrgUiRlvYKEjGIhUevgz1TdMUheOENprb/1p5KyG/Xy8kMGiqV66uX0yqPSohnUYLZMsrVtewFo3z/CvVDbccF7ENBiCehiE8gclcVqbfWPS98IFblm+rasPASJtzijy/8EXIBAb9ruMjuySKFWujuuMYLD3DMK36gl4/bQ9/JDMo5ogOxF7F6Vnyr5kwSJGlwxih/Wo+uuclff+reBvDC5yxjrySEeAqK+AQC3vfMF3PYMz1MuMWyG3TIxU/DvC3o4QnbYNeDL6HmF+bSywYc6yyXYEG/Jt7EKveqjtG253UzNkJSA0Z5pUF6Gc343AQVxo79JFKsgzp/89srCSGegnKPJBUIt6g1XydqAdRcDxb0qU1uiHyrsZMt+LC9SBom/gTHrtybevn4z3pOSDAwyrNdgQWRX8ZGVt0L5WZ/mxV9ZTDk4QAYFmmBeyJr2xPiHhTxJKkwnWitbrULRGrO/qegT21a2kh78eMJvPCmsVPua9S2Z9LLqZKiy0yyNr83QcK3W2Vfib/IVVmkyG0ieyaLbO6uRXk4IKF7xS3OJHbjvMWUFvgfqG3PJHJC3IGPFJKUGDFfoN65gj6tqdY87cWPJ3/v13OUlEzPC2/F0SJUo5fI2g5KyB/V65Odw1vpIST+A6VjK7wrUlgJ+Z+GihwMw3kAwb9zmFpQRv2ZLsExBMnjyPFgEjkh7kART5KeQEGf1pTvOv25eIAwmh8/1BVnAIaz0/PCWwnNa0SK3CHyx0KRQxvtNxIECPFwkpHNvkJjLHoIiR9BQYBid+llNHkLRSRDTCMBfvdnIoVuPreKVSw4eUiPFsBgSHeUkBASMyjiCfEY8CBvelgtqIdjuXfS98IDhGhkL6lE/O3qxWn9cE0kzklGbiCypp1uIpZWlReIF4xeAHoIiV85P4uewxg9oIz09MC18OsEkQ3d9OtSvdTvB1Sxchp4/Nffq3tXIPQn1gYDISR1KOIJ8RAoQwivM8JjSr8sctkDoT+M4zF87gYmGRlhTcU6ivw+Twn6m0R+eE9kz4x/Tr/PVYYMQpGUQbN/2dn1+5UQYnlH4hcgjCv018umW3NqGAG//h79uuL76pqJcZlhGBW7p4gUukWXuI3XKCUh5Fwo4gnxCBDwv4wX2fyYfm2VC00nqSw10CAGXXITSawGhjtVGKBFCtj2rM4BSG36prfaByf1HK/X3KWTkwOF/8GNibWf/IgJlfJDz4Z4gxCV7FfZL9IB4TYb7tPLKE+JsLpw7xtpgfvJ0R/sFwGcsvNuirUXuTC3XiaExB+KeEI8wqGtIus662U0dQp3iDpLUT3H8Hs4yXB+Akl/l7QWqaOEX7UxIlVHpz6Vek4JGSWCMMdrjGqAQOG/rosSI6zm4yomVMoPPRu8CPbTt6/rZRi3Tgr4zIXUD2XkIjcHzgVzTKymZahhTwOYENehiCfEI/z1h56Xf1ek6J3hh8fkqihSprdeNn8rEYFIQQfJi29Ie7IMIHV3wxyvEZYULPwrD1FGgd0hM16wa+u5IFSqvB0ycqZnQwNlZHU8W6ecpM3Oj0R+RSJrC5HCtzon4EHuSiKVhqq/qa4jePrRdA6J8z+ra8eUvrWamBFCXIMinhAPgPruP49SCxCo5cIX8AAPcNSTx0P38HZ7JbFITfjD6HFS9GQEu7b+E4RKFVeCPbDE6+UPK7E4T2TLE1o0Yjq4SRtAsQR/HwnTe7/U16OXOLRN/pGkjQR2hIfhvEYiN0apnKZIS3Vs1P4v0FBkl7o/LbtRGVid9L7CaCH+NyHEPc5LUdjLhJA4gyHq/SvVA3KkyK/j1cOykUjlj9QD2a5MES6oLb+otlpQQv66r5RwzKvXJxsIy4BXF6IQsfReAHfanUNFNvcQKf2SyGVKrMbTiPALEKeofILESQv7CVXubZEcpfUyDCIIyEiTuSFCUX40sKvpsR+1txmGVrk+6vhg2WX2LRVZYp+/uJ7z1tDn0YHVWsDjvgEBH+ttNQYOjKvtygjF/QX/N2d5vCmSuaA+NomaXE+IV6GIJ8RFEP+LeGA8CIu2Uw/GvtEnin2vHu6bH9dVI4p1UM/bJKzh7EURD1AhBwm2AB5OhCyQf4IShqiAgqosiL9GnocFjJ5URH24nBHswBhS9t8t+6au0X5hHv3aTdAzAobfRmXw1Zwlkr+BMvbHKSOnm9psJaTz1xep8rHd8C0O/DFfZHkztavUdgWP4+PelQOGlVqf5xqRC7LabxBCYgZFPCEuYsQmHoDoHOtEqbY/V4gsrqOXa6u/n6+WXk4mvCriz3jjnxSpOkqkUFP7DZImltd8pfbQg3+I+kgwgv31cw2Biy4WyVVe/VkPeZQRTmSdy0rEX5hfGYFKyKNqTAVlrBe+RQn47PYHYwz+508f6nO39As6HA0cDTSIFBhdQs5JkVvtFSQpwb0OYYPHf7ZXBJC5sFj9TzgSGT0U8YS4CDzx8MzWmqe7wjqB1fF1kPbGoyRj8buTzxvvVREPflPbtKatSJWRSsQ3sVeSkAkW9ZHiRcGeGkbE15gpcnibyLZnRMq8IlJCCed4iSAI+D1TdalWeOBxv8prV88yoTanj+vXovYnPPHxMi6IdwgU7kjgR/4PwOiMAecSXqP3B0cio4cinhAXQUw8yuyhSoeTDVOS3RtPEU8SBSPiUbVq29N6Ha7pXBX0cjw4skPkC3SOVmoBOTvo0hoozEhyY8T7vi/PCndDuTdFshS3XygQJrdDGaHMC3IGXoaEuAiEe97qzgp4kLuqTjxDuIEVv5pkYOQBD4dkzAcgiYV1/SqRtHuSfl1hoJ1QGifgOUUsPLYB9xQKeBIIBPwvY0WW1FcC/lm9DsId5XxrzREp3uXcqmAF1QTlic/i9+hGjg5eioQkIBCvxTqKXDNOD20nG6gPX/tLPSfEr6Cs5O9KCEHI/zFXiaCmIoVbxNd7efQ7kc1PqAWlFnJWoIAnGojvA+tFfuiv+wiIMvZQ1SlQuOPZE3yuIhYe5UkBcilYbjc6eDkSkqBkyqYf+MlYJSJWIxyExBPE/n+nhBG44nGRysPiez2f44V/R4myanp9soE8o31LdJgeJiwH1+1PFk6dUOclSpwOCPC+KyWJxmAQ76kJ90DwHkZzUF0Kwh8hOPTGRw5FPCGEEOIxIBIPbbJfXCBS4Hr1wL7Qfh0n6IXXHFilBesydQwwYXltB5GTR+0PJDjI3TJGzPquah/cqMT7c/o94323wqxCHCHC53JVVgvqfGLzu+igiCeEEEI8xv4Vuj48gOiJd34HvfAaeOFRfACgh0DNz0VK3Cfym5qj5OaeGVqEJqo3GQJ+53BluDTQCdaIY7+4iS6Ra0JnMvK+pwbCasq9pZdTK0NJQoMinhBCCPEIaHT15zKRnz/Rr6/orn6EKZCcgF54Dbzwmx7VyxCrBZSYhXCFaEX3WpTdXFxP5IeBuioYjl8igZCujQ/pZfQzqb1ApPIQ3eMiEvFuwO9lLZ6855VTcPcRQgghHuDUMZEN3USW36xE/Kc6RMGq5hFn6IU/ixHlqMxjEuXhRb5uiS4cUPY1tULtJ5T/XK6ELZI1f58rcmiL3o++R4ltCO4K/XVDQvQzYa6Rd6CIJ4QQQlwG4Ri7Ror8OkEL9xrTdbLgeXGOgwf0wgdge5pzXK12h30sIGpzllbH6XolbO8VqbNMd6kt0FAdPyXsV7QQ+UoJ/l/H+1/Iw9uOSl/FO1G8exGKeEIIIcRl/tor8u1bItlLiVR8TyRvTV1hCl7eePP3fpEL1P+urIyIZPbCh4IR9AgvqTJcpOYcPXoBo2xtZx03j4ZdmPzonWelL29DEU8IIQmKVVVisV0STy17icCKF1bZPrWdsd7G4P+Z2hSP7QgGyZO7P9Me8MseUuI9t/2GS6BZXP2NbOwULhdkEclXW+TSriKVBmuBv7m7yIpmOtQG3vmfhoicPGz/AiFRcl6Kwl4mhBASY36bLbKmrUiVkSKFmtgrYwQEK6pKQExgSBweNa+AJMAldbXH0oC44xyl7RcKVGRBHHKoXkCI7/2r1DyNGt6Ht4psesx+kQbx3lcoU4hmOaj6AWov1ELQAA8uqoLUnKXDNUj8gHEFTzoSW1GVBkmtoZJySp+LJw/q10e/14Ie4TllXhe5/EG9PplBhZ817dS9cIQeySDhQxFPCCFxJJ4iHp5lCEBUlUBSmpeGxAMFd3riOljYp0coIh1gf+QoY78IIlzDIVqQwLpRCbqCN4pcobY9dzX1vwPi4Cni3QNVghYrQxMEG1fhckbUH9YjHRfltd9IQrAvEFq041V1P1TnNfI/ED5GwocinhBC4ki8RDw6K6I03K7hSoAs0FUlvEpqHvRQBXlqeEmkpwfqi6NxEKg1X4k7NMAJgiLeHVCVxrp+RohUHChSrOO5xhWJDAh4jDqt64IXIoVv1aFHmXLo90l4UMQTQkgcgYhf3Vqk9Es6/hnhG7Hg4EYtEPOrqdpob4jWcMgoNCYtvCTS0wNiZnUbJdKVeK84SOSSVvYbQVDEu8OB9SJLG6nrp666fsZQwDvBOQJegcTpwi1FLsiqX5PwYcoKIYTEkYsKqB9KuG97RjeIObBWPdwcdqXg7+1bpOan/VsaDtuM8IUC9cKb/FLHet9Skd1TRQrdooRMC3sl8Qx//abnxe+mgI8WiHc4FX74IEDAf6QM19YU8NFCEU8IIXEEjWIqfagW1N0XDWKQeIra0k4K+cPbRLb20stZiuo58QY4zhhh2DkML0Que8AfRkeyYa7H8y7QcxIZxvv+VXWRLeg9cJ4t4Ftx3zoBRTwhhMQRhM+gdF+dJSKlX1ErlFhYf69zXnn8/t6FauG0DtlBEh3xBjg2KCW5BE2BxosUvSv1OHjiPgjLAqeO6jkJj9S87xXVMvJzKOCdgyKeEELiDIR8zjLaC4uunIFe+WjEPH7n14kiW3uqF+pvouJDrGLuSfhghGRtJ7WgDCxU3UEre3rhvQeuI5SExHE6dUSvI6ERKN6Dve/FlNGatwYFvJNQxBNCiEv8wyuvXkcj5iES19+jl1FRg15474DjuPdLLIiUeU1XO8mUXb9HvMWhTUp8/lsfs2yX2ytJuqQl3ul9jy0U8YQQ4iKBXvk6i/8p5n/5VJeLDIXju/S8dG/10Gyj/zZxH4hBhNFYwoYjJJ7n+C96XvplkXz/0steApWb0CwNcy+QWty7Ee/0vscWinhCCPEAlpgvGyTmFRseVFM3kb1fiZz4XT0wT+v1aYE2+fAeUiR6h4Pr7DAaRaVBHCHxBeo6yn6FN6+jA2uUgV9X5A8lksPlxB6RjQ+LHNtpr4gQdBpGMyyUSE0t7p3iPT5QxBNCiIcIFPO1vxAp2Fh7uVArfFFtke/6pu6Zh7f3yI6MRT6JHyePiPw0VAscGFcQOBwh8Q+4pg4oAwxdRTHtV+I51FGxWJKlmMgF2UX2TNHbGA4HN4nsGqnnkYJGWJseVYZEfZHlN4tseVKtVOc0497jD5s9EUKIh8EDEyUJ0d1z18c6Th51xa/8j0iuCmfrLB/aqkU+qDVXJE81vUzcAaEOaztqT+WFeUUuVUL+iifkTNWTUEnGZk+RNvoKlYwagv32ucgaJUavfkFk+/NqBQxj2+VZqJlIcXUsMxcQyVHaHbGKewJC7U4dFqmzXCRTNvuNEPhd3RtW3S5SdbT6Lk3tlWGCe9HiunofFrxRnd+51L2oon5N8R5fKOIJIcQnnDwksukxkd1T9OtCzXV4BprR/D5HPZxNJ9gH1c2d3l7XgAjdOVxkozoOlz8sUvJpJfoK2m+GSTKKeMR7I1wkVuoE10btL0XyVrdXBGFEfNE7tde6ZE8lUsurY/qRyJ5p9ocU5d5RQr6MO4J+K5rFDRCpp4z6cJJvnRDxGJFYqs5FjPpZ9xk1ITkfI4gkvlDEE0KIjzh1THvCvu2jkyWLthUpoh7KiE9FRZuqoyJ/OJPoMB5kHB8YW6D2fN1FNlKS1RMPIY+EyVgQiid+1R1qQYlUfAZhbRj1wvZguw5v1QZaILUWqONcy34RB7CNK29RhkRfkRL3hG5AOCHiId6PfKsT6Q+uF9n2nEipXiK5q4lclE/nfCB8LJHAOYnQKvR18FJZWIp4QgjxIRhS39xd5OdP1UP1b/X6qHq4ZNFx1/AgslV8/An2IKMOfPFO0T30jYiH17fEvTyu8eCH95VIf0iHqiHOG0Zy4MiWEfOnlUGNMDZch8h1KKqmzEVsERvjkTAY7YhJB/9aqY2MUHBCxAeyf7XI0kZa2JvvXK6PSJbiejkQPwv8fUv06EMtGOV22KIXoIgnhBCfAiF/aIvIrhEi3/fVYvF8JTwKNxe5QgmLHGWVEMlsf5jEnEAPckbe3lDZt1SJtXpa+CD+OXcl+w0SM/bMEFnbXpdqLdEtfUGOkbGNj+gOvFZSuVJU6NFQ+LbwYtXDBefYrlG623O5t0Uuw3Zm4I2H2vtxkK6BX00Z/06I+ECv/JFvlEGDJFfFP4S6rTSNwPeboP/jC3tEbLZIAXU9egWKeEII8Tm/qQfL6tYiV6oHKBo+IWYewuOSO3VnUAp5/3L6pC4pmKLmeapr44DEFqiiv/YqoZlfX0cZYYzp/SvtSi2KgkrwVflYCfkc+nUsCNcbj4o0ixDyo74TykA6nfweKOiDCRb4mXKJ1F0dea5IvKGIJ4QQ4jiWd+19ka29dDw8SlL+uVzkpyG6UdQlStxjqD/bZdozH+thfkKSFVyLh5WY3/GaMqQnK8H3uW7sFSvC8cYjKR714X/9TKTCAJFi7eN7LwgW+BDxuatoQe8HvCrifbL7CCGEpAY87xDwIHMhHb6R/1/qQf2e9sTvma4rbSyqoxNfEcNL1w0hzgNRnLOcSFElkAE89LEEgj3HVfr/bukh8vMYLeyDQanOTd21YVH4FnVfaBVfAQ8g1nOUUgK4gZ4wCuAXAe9luAsJIcSnQIzvXagWTuvSkoGdQBGPW/F97Tkqg+6v6rPbnta15CHmUZKSgp4Qf4O8CyTf4jpe30WH9QQCUY94/Z9HihRR4h33BNNbgvgfinhCCPEpZ7zw6k6OYftg79oFWbTHq8T9IrXm6UQ9S8w/o0voGUFPMU+IP4E3/hJ1LVcarK/hv36331BgJADdntfdrV6oe8Olap4pu36PJAYU8YQQ4lNMfGmwFz4YiHuIeTSBgpivOlL9zsvqDQh62zv/20z9WUKIv4CQz1rirBEPMY9+BevvUQK+Cz6gRP6HsY3PJ+5AEU8IIT4lc2GR7CVF8tc9+wBPDyPm0TreCHrLO6/48QORUyf0MiHEn6ACzc+fiCxtrPNhCrUQuW6R7h2RUQlK4j8o4gkhxKfkLK87gmIeLsHe+XJvsRQlIX4FSaKoAIPGUxsewAqRSsowrzJcX+cU8IkJRTwhhPgUCPFMOfU8UiwxX1V79Akh0YMOyuGCRmHoCopShvsW69cZEfg7BzdqEY8kdzRSqj5VpMgdNMwTHYp4QgghhBAHQDlHJJPCE45mUaFyYJ1u649a5EvU/KdhaYt5I95/GqqbPS27XmTz4+pfKkWXp6bIycM6qT0a4574AzZ7IoQQQghxAMSkf3WNSLEOuqkS+jaEAoT5nytEDqnf3/SYvVKBjss5StsvFBDmR3aIbLjfXqGwPlNG/a8LRU78pktNlnlN5NJ7KOSdgh1bCSGEEEISECipg+tFvntH5JcxWuyh6Vq4pCXmzwDFBmGu5hDvuSqKVSseAh4Yjz5Argu6opLooYgnhBBCCElA9q/RYS0Q1/mVyKv6SXRNlYyYD+7AmnJS5K8/RLIUEclb66x4N0DRoffDtl4iZd+gN94pKOIJIYQQQhKQ3VNE1nYSufp/dlOlnPYbLpDs3ngYQPtXqgVlvOS5JvSQpvTwqohnYishhBBCSIRANO4arjSjUlQF6rsr4EGuSsqYeEkvnwjo4JoM4FjsVMcCycEwZGDQOIJxd3vM7U0RTwghhBCSBhCGqAaTVrUYeH3hiS/cUiT71fZKF0H4TPYr1fwCvZxMoFPtxof0cvl3RXJX1stRY/ajx/YnRTwhhBBCSBqY8BRT+hGhFUbQY0KNdoi7Yh29U5c92xUiea9Lrv4P1rHYoJfL9xUp3smZUBqnwPYhzyE1QzBSKOIJIYQQQtIA3lx4dcGmR3VsNAQ9wjbgoTdVZM7PpOdeIEcpkWpjlJi/3F7hUSBoTcOqQOMoEuCFN8ciVwXvCXgrzKeu3k6noIgnhBBCCEkDiEF4dZEkisRGeHkBwjZ+m6GXsQ6lHr2EH7q1Bja5soyjBiJr2unwpD1q35oJ1X/SK8Ny6oRufoWY9Qr9vXcsTJiP9R0cjKtndRpCCCGEkBCxvKofK1H2sL1CUXu+SL7r7BckZLAvA0tp7hqhBPwktRCgTFNO63npl5Q4r65r4wcbKFaJz8Yi+ZURUG208174aKvTmN+HsXdpF+e2jyKeEEIIISQMAsUnwmishkseCt/wK/CoH9kucny3vUKBDrXbnlELSq2ep/Z1oZtFirXXy5kLimS9TGRdZyWUF4hUn6KMqdr695wkGhGP7wQvPCoY1Vbb6KSxRxFPCCGEEEI8CVTq4W0iR78T2fmRyJ7p9hs2JXuKfPuaSJFWIhU/ELkgi/2Gg0Qj4pH4vKS+SH41OT1KwJh4QgghhBDiSVAmM2cZkULNRKqMEKk1V3vcTW7CNy9pb3eOq0X2fSXy58qzIThOc3hreIm3MED2LdLbE4tqOfTEE0IIIYQQX4FQpr1fimzoJnLkG5ELsquVdh13CPysxfVyIJnyiOSppj4WpgsbVXNQkQiU7yeSq3zGIVRQ179OFFnfRb1Q/w/GB/63k1DEE0IIIYQQ34FQlcV1RPLXE7n8UR1ys/kJ/V5qjZkyKaFfb71I5ovtFSGSWjJzhQEixTumLeQPbRVZhPj80zrM55I2apMcbhZFEU8IIYQQQnwHYtVXNBep9qlIoaY6bAVC/tgu+wNBZMohkrtq+J54YJKZD206W48+PSH/+xyRVa11VZ3LHnRewAPGxBNCCCGEEF8BwY5KNqZqDYA4R5faAvVTn/JcE5mABxDq+evoEpGoRQ82KnGOuvZWpaIAlziWUVUHoOFWLAQ8oIgnhBBCCCG+IjB05sI8eh4PIOZN869iHUX+mC+y7EaRH94725QK1XS29tKfz1xIz2MBw2kIIYQQQoivQBfU5U11SEuR2yP3sEcDquKgOdWG+9ULVMRR21D6RV3FBjH0ZV4Vueyh2HniKeIJIYQQQoivQDjNX3+IXFTAHQFvMJ53NJtCUypUzTl1WL9X+mVdx54inhBCCCGEEA9ixPzuySJfv4AVOvSmdG+RvLVEcldxXsxTxBNCCCGEEBIlUNQ/vq/j4VGRBnHyZ8JsXtJJriBzYWdEPUU8IYQQQgghUQA1fU5zpzm6AZUJswEI+zHdZI2oR1OqnOUjE/QU8YQQQgghhERBWs2doLIRZnNsp/4cSk8GivpsV4jUni+SKadeFw4U8YQQQgghhERBqM2dgkV9lsIiOSuk/fn0cDGflxBCCCGEEH8DYR5qcye8l7OMyMU36ClXxcgEPKCIJ4QQQgghJELi1dwpGIp4QgghhBBCIgBe+L0L1cJpHUqTu6peHw8o4gkhhBBCCImAM154pajz1ow8NCYSKOIJIYQQQggJA3jg968R2TNFvXDBCw9YnYYQQgghhJAwQEnJxXWUmD+pxHQmkZqzRfJU0+/FC3riCSGEEEIICQOI9yxFRcq8KlJrfvy98ICeeEIIIYQQQsIA6vnUYZELcsQ3Dj4QinhCCCGEEEJ8BsNpCCGEEEII8RkU8YQQQgghhPgMinhCCCGEEEJ8BkU8IYQQQgghPoMinhBCCCGEEJ9BEU8IIYQQQojPoIgnhBBCCCHEZ1DEE0IIIYQQ4jMo4gkhhBBCCPEZFPGEEEIIIYT4DIp4QgghhBBCfAZFPCGEEEIIIb5C5P8B+3Z+Aze1rv8AAAAASUVORK5CYII=;" vertex="1" parent="1">
          <mxGeometry x="40" y="80" width="753" height="320" as="geometry" />
        </mxCell>
        <mxCell id="fEqCY_47x1B3paPdXpSq-2" value="str. 12" style="text;html=1;strokeColor=none;fillColor=none;align=center;verticalAlign=top;whiteSpace=wrap;rounded=0;fontSize=30;" vertex="1" parent="1">
          <mxGeometry x="40" y="40" width="200" height="40" as="geometry" />
        </mxCell>
      </root>
    </mxGraphModel>
  </diagram>
</mxfile>
